<svg width="38" height="38" viewBox="0 0 38 38" fill="none" xmlns="http://www.w3.org/2000/svg">
<g clip-path="url(#clip0)">
<path d="M37.8788 0.0703761H37.8172V0H0.517862V0.0703761H0.473877V37.3521H0.526659V37.4049H37.826V37.3521H37.8788V0.0703761ZM35.4948 35.0209H2.85787V2.38399H35.4948V35.0209Z" fill="#C0C0C0"/>
<path d="M7.18576 18.8872L7.50245 14.0488H14.2322V15.7642H9.32343L9.16509 17.7612L9.27065 17.7788C9.78967 17.3213 10.08 17.2421 10.9597 17.2421H12.1737C13.0622 17.2421 13.5284 17.3917 13.8891 17.7524C14.3553 18.2186 14.5313 18.9488 14.5313 20.1716C14.5313 21.7902 14.3465 22.3532 13.8803 22.8458C13.5636 23.1801 13.071 23.3649 12.244 23.3649H9.39381C8.5405 23.3649 7.9599 23.2153 7.63441 22.9162C7.21215 22.4764 7.01862 21.8694 7.01862 20.3739L9.10351 20.3563C9.1211 21.1128 9.22666 21.4031 9.33223 21.4999C9.43779 21.6143 9.62253 21.6583 10.0536 21.6583H11.5051C11.8658 21.6583 12.0329 21.6055 12.1385 21.5087C12.2616 21.3855 12.3672 21.1128 12.3672 20.2859C12.3672 19.459 12.2616 19.1951 12.1385 19.0719C12.0329 18.9752 11.8746 18.9224 11.5051 18.9224H10.5726C9.94802 18.9224 9.56095 19.0543 8.98914 19.415L7.18576 18.8872Z" fill="#C0C0C0"/>
<path d="M20.0472 14.0488C21.0765 14.0488 21.5603 14.172 21.965 14.5415C22.5104 15.0341 22.959 16.0018 22.959 18.7024C22.959 21.3855 22.5104 22.362 21.965 22.8634C21.5691 23.2241 21.0765 23.3561 20.0472 23.3561H17.8832C16.8539 23.3561 16.3789 23.2241 15.983 22.8634C15.4288 22.362 14.989 21.3855 14.989 18.7024C14.989 16.0018 15.4288 15.0341 15.983 14.5415C16.3789 14.172 16.8627 14.0488 17.8832 14.0488H20.0472ZM18.3582 15.7642C17.8656 15.7642 17.7072 15.817 17.6017 15.9138C17.4521 16.0457 17.241 16.4064 17.241 18.7112C17.241 21.0161 17.4521 21.3679 17.6017 21.4911C17.7072 21.5967 17.8656 21.6406 18.3582 21.6406H19.5722C20.0736 21.6406 20.2232 21.5967 20.3463 21.4911C20.4959 21.3679 20.707 21.0161 20.707 18.7112C20.707 16.4064 20.4959 16.0545 20.3463 15.9138C20.2232 15.817 20.0824 15.7642 19.5722 15.7642H18.3582Z" fill="#C0C0C0"/>
<path d="M28.4128 14.0488C29.4421 14.0488 29.9259 14.172 30.3306 14.5415C30.876 15.0341 31.3246 16.0018 31.3246 18.7024C31.3246 21.3855 30.876 22.362 30.3306 22.8634C29.9347 23.2241 29.4421 23.3561 28.4128 23.3561H26.2488C25.2195 23.3561 24.7445 23.2241 24.3486 22.8634C23.7944 22.362 23.3546 21.3855 23.3546 18.7024C23.3546 16.0018 23.7944 15.0341 24.3486 14.5415C24.7445 14.172 25.2283 14.0488 26.2488 14.0488H28.4128ZM26.7238 15.7642C26.2312 15.7642 26.0728 15.817 25.9673 15.9138C25.8177 16.0457 25.6066 16.4064 25.6066 18.7112C25.6066 21.0161 25.8177 21.3679 25.9673 21.4911C26.0728 21.5967 26.2312 21.6406 26.7238 21.6406H27.9378C28.4392 21.6406 28.5888 21.5967 28.7031 21.4911C28.8527 21.3679 29.0638 21.0161 29.0638 18.7112C29.0638 16.4064 28.8527 16.0545 28.7031 15.9138C28.5888 15.817 28.4392 15.7642 27.9378 15.7642H26.7238Z" fill="#C0C0C0"/>
</g>
<defs>
<clipPath id="clip0">
<rect width="37.4049" height="37.3521" fill="white" transform="translate(0.473877)"/>
</clipPath>
</defs>
</svg>
