<svg width="47" height="32" viewBox="0 0 47 32" fill="none" xmlns="http://www.w3.org/2000/svg">
<g clip-path="url(#clip0)">
<path d="M42.9168 31.0312C40.7797 31.0312 39.5121 29.9373 39.4151 28.3615H41.4586C41.4586 28.8868 41.7496 29.586 43.0138 29.6295C43.8901 29.6295 44.375 29.1042 44.375 28.7095C44.278 28.0972 43.4988 28.0537 42.7228 27.9199C41.8466 27.7928 41.1676 27.6155 40.6793 27.398C40.0004 27.0467 39.6091 26.3007 39.6091 25.5145C39.6091 24.1127 40.7797 23.0187 42.8198 23.0187C44.7663 23.0187 46.0306 24.0257 46.1242 25.558H44.1811C44.1811 25.1666 44.0841 24.5075 42.9168 24.5075C42.1375 24.5075 41.6526 24.638 41.5556 25.2067C41.5556 25.9963 43.2078 25.9528 44.472 26.2572C45.6393 26.565 46.4185 27.3077 46.4185 28.3615C46.4185 30.2885 44.8633 31.0312 42.9168 31.0312Z" fill="#C0C0C0"/>
<path d="M5.67938 18.1026L12.3885 14.205L15.9872 20.3809H6.94362" fill="#C0C0C0"/>
<path fill-rule="evenodd" clip-rule="evenodd" d="M18.806 23.0038V30.7988H20.7693V23.0038H18.806Z" fill="#C0C0C0"/>
<path d="M2.56542 27.0174C2.56542 28.2419 3.63567 29.2489 4.79956 29.2489C6.06714 29.2489 7.03705 28.2419 7.03705 27.0174C7.03705 25.8364 6.06714 24.786 4.79956 24.786C3.63567 24.786 2.56542 25.8364 2.56542 27.0174ZM4.70257 31.0454C2.56542 31.0454 0.719238 29.2489 0.719238 27.0174C0.719238 24.786 2.56542 23.0329 4.70257 23.0329C5.57884 23.0329 6.35811 23.2537 7.03705 23.7321V23.1199H8.98357V30.8681H7.03705V30.3863C6.4551 30.8246 5.57884 31.0454 4.70257 31.0454Z" fill="#C0C0C0"/>
<path d="M30.6702 20.3789L21.3357 4.09308L28.0448 0.152092L39.7137 20.3789" fill="#C0C0C0"/>
<path d="M11.512 27.0174C11.512 28.2419 12.4853 29.2489 13.7495 29.2489C14.9134 29.2489 15.987 28.2419 15.987 27.0174C15.987 25.8364 14.9134 24.786 13.7495 24.786C12.4853 24.786 11.512 25.8364 11.512 27.0174ZM13.6525 31.0454C11.415 31.0454 9.66583 29.2489 9.66583 27.0174C9.66583 24.786 11.415 23.0329 13.6525 23.0329C14.5254 23.0329 15.3047 23.2537 15.987 23.7321V20.4502H17.9302V30.8681H15.987V30.3863C15.3047 30.8246 14.5254 31.0454 13.6525 31.0454Z" fill="#C0C0C0"/>
<path d="M13.5566 11.1422L20.3627 7.29149L27.8511 20.3791H20.7507V22.3062H18.8075V20.3791" fill="#C0C0C0"/>
<path d="M45.1577 22.3672C44.6694 22.3672 44.1844 21.9289 44.1844 21.4037C44.1844 20.8784 44.6694 20.4402 45.1577 20.4402C45.7397 20.4402 46.131 20.8784 46.131 21.4037C46.131 21.9289 45.7397 22.3672 45.1577 22.3672ZM45.1577 20.574C44.6694 20.574 44.3784 20.9654 44.3784 21.4037C44.3784 21.8419 44.6694 22.2367 45.1577 22.2367C45.6427 22.2367 45.9336 21.8419 45.9336 21.4037C45.9336 20.9654 45.6427 20.574 45.1577 20.574Z" fill="#C0C0C0"/>
<path d="M45.3585 21.9321L45.1645 21.4939H44.9705V21.9321H44.8234V20.8816H45.2615C45.3585 20.8816 45.5525 21.0155 45.5525 21.1894C45.5525 21.3634 45.4555 21.4504 45.3585 21.4939L45.5525 21.9321H45.3585ZM45.1645 21.0155H44.9705V21.3634H45.1645C45.3585 21.3634 45.3585 21.3199 45.3585 21.1894C45.3585 21.0991 45.3585 21.0155 45.1645 21.0155Z" fill="#C0C0C0"/>
<path d="M32.3148 27.0174C32.3148 28.2419 33.2881 29.2489 34.5523 29.2489C35.7195 29.2489 36.7864 28.2419 36.7864 27.0174C36.7864 25.8364 35.7195 24.786 34.5523 24.786C33.2881 24.786 32.3148 25.8364 32.3148 27.0174ZM34.452 31.0454C32.2178 31.0454 30.4686 29.2489 30.4686 27.0174C30.4686 24.786 32.2178 23.0329 34.452 23.0329C35.3282 23.0329 36.1075 23.2537 36.7864 23.7321V23.1199H38.636V30.8681H36.7864V30.3863C36.1075 30.8246 35.3282 31.0454 34.452 31.0454Z" fill="#C0C0C0"/>
<path d="M23.3749 27.0174C23.3749 28.2419 24.4452 29.2489 25.6124 29.2489C26.8766 29.2489 27.8499 28.2419 27.8499 27.0174C27.8499 25.8364 26.8766 24.786 25.6124 24.786C24.4452 24.786 23.3749 25.8364 23.3749 27.0174ZM27.8499 20.4502H29.7931V30.8681H27.8499V30.3863C27.2646 30.8246 26.4853 31.0454 25.6124 31.0454C23.3749 31.0454 21.5287 29.2489 21.5287 27.0174C21.5287 24.786 23.3749 23.0329 25.6124 23.0329C26.4853 23.0329 27.2646 23.2537 27.8499 23.7321V20.4502Z" fill="#C0C0C0"/>
</g>
<defs>
<clipPath id="clip0">
<rect width="46.0054" height="31.1268" fill="white" transform="translate(0.570435)"/>
</clipPath>
</defs>
</svg>
