<svg width="40" height="40" viewBox="0 0 40 40" fill="none" xmlns="http://www.w3.org/2000/svg">
<path d="M30 30.0061H5C4.33716 30.0054 3.70166 29.7418 3.23296 29.2731C2.76427 28.8044 2.50066 28.1689 2.5 27.5061V10.0061C2.50066 9.34327 2.76427 8.70776 3.23296 8.23907C3.70166 7.77037 4.33716 7.50677 5 7.5061H30C30.6628 7.50677 31.2983 7.77037 31.767 8.23907C32.2357 8.70776 32.4993 9.34327 32.5 10.0061V27.5061C32.499 28.1688 32.2353 28.8041 31.7667 29.2728C31.298 29.7414 30.6627 30.0051 30 30.0061ZM5 10.0061V27.5061H30V10.0061H5Z" fill="#E48A7F"/>
<path d="M0 32.5061H35V35.0061H0V32.5061Z" fill="#9068C0"/>
</svg>
