
<svg width="40" height="40" viewBox="0 0 40 40" fill="none" xmlns="http://www.w3.org/2000/svg">
<path d="M37.5 37.5H35V33.75C35 32.7554 34.6049 31.8016 33.9017 31.0983C33.1984 30.3951 32.2446 30 31.25 30H26.25C25.2554 30 24.3016 30.3951 23.5983 31.0983C22.8951 31.8016 22.5 32.7554 22.5 33.75V37.5H20V33.75C20 32.0924 20.6585 30.5027 21.8306 29.3306C23.0027 28.1585 24.5924 27.5 26.25 27.5H31.25C32.9076 27.5 34.4973 28.1585 35.6694 29.3306C36.8415 30.5027 37.5 32.0924 37.5 33.75V37.5Z" fill="#E55D2D"/>
<path d="M28.75 15C29.4917 15 30.2167 15.2199 30.8334 15.632C31.4501 16.044 31.9307 16.6297 32.2146 17.3149C32.4984 18.0002 32.5726 18.7542 32.4279 19.4816C32.2833 20.209 31.9261 20.8772 31.4017 21.4017C30.8772 21.9261 30.209 22.2833 29.4816 22.4279C28.7542 22.5726 28.0002 22.4984 27.3149 22.2145C26.6297 21.9307 26.044 21.4501 25.632 20.8334C25.2199 20.2167 25 19.4917 25 18.75C25 17.7554 25.3951 16.8016 26.0984 16.0983C26.8016 15.3951 27.7554 15 28.75 15ZM28.75 12.5C27.5139 12.5 26.3055 12.8666 25.2777 13.5533C24.2499 14.2401 23.4488 15.2162 22.9758 16.3582C22.5027 17.5003 22.3789 18.7569 22.6201 19.9693C22.8613 21.1817 23.4565 22.2953 24.3306 23.1694C25.2047 24.0435 26.3183 24.6388 27.5307 24.8799C28.7431 25.1211 29.9997 24.9973 31.1418 24.5242C32.2838 24.0512 33.2599 23.2501 33.9467 22.2223C34.6334 21.1945 35 19.9861 35 18.75C35 17.0924 34.3415 15.5027 33.1694 14.3306C31.9973 13.1585 30.4076 12.5 28.75 12.5Z" fill="#E55D2D"/>
<path d="M17.5 27.5H15V23.75C15 22.7554 14.6049 21.8016 13.9017 21.0983C13.1984 20.3951 12.2446 20 11.25 20H6.25C5.25544 20 4.30161 20.3951 3.59835 21.0983C2.89509 21.8016 2.5 22.7554 2.5 23.75V27.5H0V23.75C0 22.0924 0.65848 20.5027 1.83058 19.3306C3.00269 18.1585 4.5924 17.5 6.25 17.5H11.25C12.9076 17.5 14.4973 18.1585 15.6694 19.3306C16.8415 20.5027 17.5 22.0924 17.5 23.75V27.5Z" fill="#9068C0"/>
<path d="M8.75 5C9.49168 5 10.2167 5.21993 10.8334 5.63199C11.4501 6.04404 11.9307 6.62971 12.2146 7.31494C12.4984 8.00016 12.5726 8.75416 12.4279 9.48159C12.2833 10.209 11.9261 10.8772 11.4017 11.4017C10.8772 11.9261 10.209 12.2833 9.48159 12.4279C8.75416 12.5726 8.00016 12.4984 7.31494 12.2145C6.62972 11.9307 6.04405 11.4501 5.63199 10.8334C5.21994 10.2167 5 9.49168 5 8.75C5 7.75544 5.39509 6.80161 6.09835 6.09835C6.80161 5.39509 7.75544 5 8.75 5ZM8.75 2.5C7.51387 2.5 6.3055 2.86656 5.27769 3.55331C4.24988 4.24007 3.4488 5.21619 2.97576 6.35823C2.50271 7.50027 2.37894 8.75693 2.62009 9.96931C2.86125 11.1817 3.45651 12.2953 4.33059 13.1694C5.20466 14.0435 6.31831 14.6388 7.53069 14.8799C8.74307 15.1211 9.99974 14.9973 11.1418 14.5242C12.2838 14.0512 13.2599 13.2501 13.9467 12.2223C14.6334 11.1945 15 9.98613 15 8.75C15 7.0924 14.3415 5.50269 13.1694 4.33058C11.9973 3.15848 10.4076 2.5 8.75 2.5Z" fill="#9068C0"/>
</svg>
