<svg width="40" height="40" viewBox="0 0 40 40" fill="none" xmlns="http://www.w3.org/2000/svg">
<g clip-path="url(#clip0)">
<path d="M27.5 10H22.5V7.5H20V10H10V7.5H7.5V10H2.5C1.125 10 0 11.125 0 12.5V37.5C0 38.875 1.125 40 2.5 40H27.5C28.875 40 30 38.875 30 37.5V12.5C30 11.125 28.875 10 27.5 10ZM27.5 37.5H2.5V20H27.5V37.5ZM27.5 17.5H2.5V12.5H7.5V15H10V12.5H20V15H22.5V12.5H27.5V17.5Z" fill="#DA75AF" stroke="#DA75AF" stroke-width="0.5"/>
<path d="M9.5 31C8.70888 31 7.93552 30.7654 7.27772 30.3259C6.61992 29.8864 6.10723 29.2616 5.80448 28.5307C5.50173 27.7998 5.42252 26.9956 5.57686 26.2196C5.7312 25.4437 6.11216 24.731 6.67157 24.1716C7.23098 23.6122 7.94372 23.2312 8.71964 23.0769C9.49556 22.9225 10.2998 23.0017 11.0307 23.3045C11.7616 23.6072 12.3864 24.1199 12.8259 24.7777C13.2654 25.4355 13.5 26.2089 13.5 27C13.4987 28.0605 13.0769 29.0772 12.327 29.827C11.5772 30.5769 10.5605 30.9987 9.5 31ZM9.5 24.6C9.02533 24.6 8.56131 24.7408 8.16663 25.0045C7.77195 25.2682 7.46434 25.643 7.28269 26.0816C7.10104 26.5201 7.05351 27.0027 7.14612 27.4682C7.23872 27.9338 7.4673 28.3614 7.80294 28.6971C8.13859 29.0327 8.56623 29.2613 9.03178 29.3539C9.49734 29.4465 9.9799 29.399 10.4184 29.2173C10.857 29.0357 11.2318 28.728 11.4955 28.3334C11.7592 27.9387 11.9 27.4747 11.9 27C11.8994 26.3637 11.6463 25.7536 11.1964 25.3036C10.7464 24.8537 10.1363 24.6006 9.5 24.6Z" fill="#7368A4" stroke="#7368A4" stroke-width="0.5"/>
</g>
<defs>
<clipPath id="clip0">
<rect width="40" height="40" fill="white"/>
</clipPath>
</defs>
</svg>
