<svg width="48" height="48" viewBox="0 0 48 48" fill="none" xmlns="http://www.w3.org/2000/svg">
<path d="M18.5714 4H21.4286V8.28571H18.5714V4Z" fill="#C0C0C0"/>
<path d="M35.7143 22.5713H40V25.4284H35.7143V22.5713Z" fill="#C0C0C0"/>
<path d="M18.5714 39.7139H21.4286V43.9996H18.5714V39.7139Z" fill="#C0C0C0"/>
<path d="M0 22.5713H4.28571V25.4284H0V22.5713Z" fill="#C0C0C0"/>
<path d="M4.92859 10.9775L6.94859 8.95605L9.97859 11.9875L7.95859 14.0075L4.92859 10.9775Z" fill="#C0C0C0"/>
<path d="M30 11.971L33.03 8.94238L35.05 10.9624L32.02 13.9924L30 11.971Z" fill="#C0C0C0"/>
<path d="M30.0029 36.0229L32.0244 34.0029L35.0529 37.0344L33.0344 39.0544L30.0029 36.0229Z" fill="#C0C0C0"/>
<path d="M4.95709 37.0429L7.98566 34L9.99995 36.0286L6.97138 39.0571L4.95709 37.0429Z" fill="#C0C0C0"/>
<path d="M20 12.5713C17.7396 12.5713 15.53 13.2416 13.6506 14.4974C11.7712 15.7531 10.3064 17.538 9.44136 19.6263C8.57636 21.7146 8.35004 24.0125 8.79101 26.2295C9.23199 28.4464 10.3205 30.4828 11.9188 32.0811C13.5171 33.6794 15.5535 34.7679 17.7704 35.2088C19.9873 35.6498 22.2852 35.4235 24.3735 34.5585C26.4618 33.6935 28.2467 32.2287 29.5025 30.3492C30.7583 28.4698 31.4286 26.2602 31.4286 23.9999C31.4286 20.9688 30.2245 18.0619 28.0812 15.9186C25.9379 13.7754 23.031 12.5713 20 12.5713ZM20 32.5713C17.7267 32.5713 15.5465 31.6682 13.9391 30.0608C12.3316 28.4533 11.4286 26.2731 11.4286 23.9999C11.4286 21.7266 12.3316 19.5464 13.9391 17.9389C15.5465 16.3315 17.7267 15.4284 20 15.4284V32.5713Z" fill="#9068C0"/>
</svg>
