<svg width="36" height="36" viewBox="0 0 36 36" fill="none" xmlns="http://www.w3.org/2000/svg">
<path d="M15.75 2.25C12.635 2.25 9.58985 3.17372 6.99978 4.90435C4.4097 6.63499 2.39098 9.0948 1.1989 11.9727C0.00682421 14.8507 -0.305078 18.0175 0.302639 21.0727C0.910356 24.1279 2.4104 26.9343 4.61307 29.1369C6.81575 31.3396 9.62213 32.8397 12.6773 33.4474C15.7325 34.0551 18.8993 33.7432 21.7773 32.5511C24.6552 31.359 27.115 29.3403 28.8457 26.7502C30.5763 24.1602 31.5 21.1151 31.5 18C31.5 13.8228 29.8406 9.81677 26.8869 6.86307C23.9332 3.90937 19.9272 2.25 15.75 2.25ZM15.75 31.5C13.08 31.5 10.4699 30.7082 8.24981 29.2248C6.02975 27.7414 4.29942 25.633 3.27763 23.1662C2.25585 20.6994 1.98851 17.985 2.50941 15.3663C3.03031 12.7475 4.31606 10.3421 6.20407 8.45406C8.09207 6.56605 10.4975 5.2803 13.1163 4.7594C15.735 4.2385 18.4494 4.50584 20.9162 5.52763C23.383 6.54941 25.4914 8.27974 26.9748 10.4998C28.4582 12.7199 29.25 15.33 29.25 18C29.25 21.5804 27.8277 25.0142 25.2959 27.5459C22.7642 30.0777 19.3304 31.5 15.75 31.5Z" fill="#DA75AF"/>
<path d="M20.8125 12.375C20.2562 12.375 19.7125 12.5399 19.25 12.849C18.7874 13.158 18.427 13.5973 18.2141 14.1112C18.0012 14.6251 17.9455 15.1906 18.054 15.7362C18.1626 16.2818 18.4304 16.7829 18.8238 17.1762C19.2171 17.5696 19.7182 17.8374 20.2638 17.946C20.8094 18.0545 21.3749 17.9988 21.8888 17.7859C22.4027 17.573 22.842 17.2126 23.151 16.75C23.4601 16.2875 23.625 15.7438 23.625 15.1875C23.625 14.4416 23.3287 13.7262 22.8012 13.1988C22.2738 12.6713 21.5584 12.375 20.8125 12.375Z" fill="#9068C0"/>
<path d="M6.75 14.625H13.5V16.875H6.75V14.625Z" fill="#9068C0"/>
<path d="M15.7492 27C17.3021 26.9974 18.828 26.593 20.1783 25.8262C21.5287 25.0593 22.6577 23.9561 23.4555 22.6238L21.5317 21.4988C20.9314 22.4958 20.0834 23.3206 19.0702 23.8932C18.057 24.4658 16.913 24.7667 15.7492 24.7667C14.5854 24.7667 13.4414 24.4658 12.4282 23.8932C11.415 23.3206 10.5671 22.4958 9.96672 21.4988L8.04297 22.6238C8.84078 23.9561 9.96975 25.0593 11.3201 25.8262C12.6705 26.593 14.1963 26.9974 15.7492 27Z" fill="#9068C0"/>
</svg>
