<svg width="44" height="44" viewBox="0 0 44 44" fill="none" xmlns="http://www.w3.org/2000/svg">
<path d="M20.625 38.5H12.375C11.6459 38.4993 10.9468 38.2093 10.4313 37.6937C9.91569 37.1782 9.62573 36.4791 9.625 35.75V28.875H2.75C2.02088 28.8743 1.32183 28.5843 0.806261 28.0687C0.290693 27.5532 0.00072803 26.8541 0 26.125V17.875C0.00072803 17.1459 0.290693 16.4468 0.806261 15.9313C1.32183 15.4157 2.02088 15.1257 2.75 15.125H9.625V8.25C9.62573 7.52088 9.91569 6.82183 10.4313 6.30626C10.9468 5.79069 11.6459 5.50073 12.375 5.5H20.625C21.3541 5.50073 22.0532 5.79069 22.5687 6.30626C23.0843 6.82183 23.3743 7.52088 23.375 8.25V15.125H30.25C30.9791 15.1257 31.6782 15.4157 32.1937 15.9313C32.7093 16.4468 32.9993 17.1459 33 17.875V26.125C32.9989 26.854 32.7088 27.5529 32.1933 28.0683C31.6779 28.5838 30.979 28.8739 30.25 28.875H23.375V35.75C23.3739 36.479 23.0838 37.1779 22.5683 37.6933C22.0529 38.2088 21.354 38.4989 20.625 38.5ZM2.75 17.875V26.125H12.375V35.75H20.625V26.125H30.25V17.875H20.625V8.25H12.375V17.875H2.75Z" fill="#DA75AF"/>
</svg>
