<svg width="24" height="24" viewBox="0 0 24 24" fill="none" xmlns="http://www.w3.org/2000/svg">
<path d="M23.25 22.5H21.75V20.25C21.75 19.6533 21.5129 19.081 21.091 18.659C20.669 18.2371 20.0967 18 19.5 18H16.5C15.9033 18 15.331 18.2371 14.909 18.659C14.4871 19.081 14.25 19.6533 14.25 20.25V22.5H12.75V20.25C12.75 19.2554 13.1451 18.3016 13.8483 17.5983C14.5516 16.8951 15.5054 16.5 16.5 16.5H19.5C20.4946 16.5 21.4484 16.8951 22.1517 17.5983C22.8549 18.3016 23.25 19.2554 23.25 20.25V22.5Z" fill="#4F4F4F"/>
<path d="M18 9C18.445 9 18.88 9.13196 19.25 9.37919C19.62 9.62643 19.9084 9.97783 20.0787 10.389C20.249 10.8001 20.2936 11.2525 20.2068 11.689C20.12 12.1254 19.9057 12.5263 19.591 12.841C19.2763 13.1557 18.8754 13.37 18.439 13.4568C18.0025 13.5436 17.5501 13.499 17.139 13.3287C16.7278 13.1584 16.3764 12.87 16.1292 12.5C15.882 12.13 15.75 11.695 15.75 11.25C15.75 10.6533 15.9871 10.081 16.409 9.65901C16.831 9.23705 17.4033 9 18 9ZM18 7.5C17.2583 7.5 16.5333 7.71993 15.9166 8.13199C15.2999 8.54404 14.8193 9.12971 14.5355 9.81494C14.2516 10.5002 14.1774 11.2542 14.3221 11.9816C14.4668 12.709 14.8239 13.3772 15.3484 13.9017C15.8728 14.4261 16.541 14.7833 17.2684 14.9279C17.9958 15.0726 18.7498 14.9984 19.4351 14.7145C20.1203 14.4307 20.706 13.9501 21.118 13.3334C21.5301 12.7167 21.75 11.9917 21.75 11.25C21.75 10.2554 21.3549 9.30161 20.6517 8.59835C19.9484 7.89509 18.9946 7.5 18 7.5Z" fill="#4F4F4F"/>
<path d="M11.25 16.5H9.75V14.25C9.75 13.6533 9.51295 13.081 9.09099 12.659C8.66903 12.2371 8.09674 12 7.5 12H4.5C3.90326 12 3.33097 12.2371 2.90901 12.659C2.48705 13.081 2.25 13.6533 2.25 14.25V16.5H0.75V14.25C0.75 13.2554 1.14509 12.3016 1.84835 11.5983C2.55161 10.8951 3.50544 10.5 4.5 10.5H7.5C8.49456 10.5 9.44839 10.8951 10.1517 11.5983C10.8549 12.3016 11.25 13.2554 11.25 14.25V16.5Z" fill="#4F4F4F"/>
<path d="M6 3C6.44501 3 6.88002 3.13196 7.25004 3.37919C7.62005 3.62643 7.90843 3.97783 8.07873 4.38896C8.24903 4.8001 8.29359 5.2525 8.20677 5.68895C8.11995 6.12541 7.90566 6.52632 7.59099 6.84099C7.27632 7.15566 6.87541 7.36995 6.43896 7.45677C6.0025 7.54358 5.5501 7.49903 5.13896 7.32873C4.72783 7.15843 4.37643 6.87004 4.1292 6.50003C3.88196 6.13002 3.75 5.69501 3.75 5.25C3.75 4.65326 3.98705 4.08097 4.40901 3.65901C4.83097 3.23705 5.40326 3 6 3ZM6 1.5C5.25832 1.5 4.5333 1.71993 3.91661 2.13199C3.29993 2.54404 2.81928 3.12971 2.53545 3.81494C2.25162 4.50016 2.17736 5.25416 2.32206 5.98159C2.46675 6.70902 2.8239 7.3772 3.34835 7.90165C3.8728 8.4261 4.54098 8.78325 5.26841 8.92795C5.99584 9.07264 6.74984 8.99838 7.43506 8.71455C8.12029 8.43072 8.70596 7.95007 9.11801 7.33339C9.53007 6.7167 9.75 5.99168 9.75 5.25C9.75 4.25544 9.35491 3.30161 8.65165 2.59835C7.94839 1.89509 6.99456 1.5 6 1.5Z" fill="#4F4F4F"/>
</svg>
