<svg width="48" height="48" viewBox="0 0 48 48" fill="none" xmlns="http://www.w3.org/2000/svg">
<circle cx="24" cy="24" r="23.25" stroke="#C0C0C0" stroke-width="1.5"/>
<path d="M31.9441 19.9264C31.9568 20.104 31.9568 20.2817 31.9568 20.4594C31.9568 25.8781 27.8325 32.1218 20.2944 32.1218C17.9721 32.1218 15.8147 31.4492 14 30.2817C14.33 30.3198 14.6472 30.3325 14.9898 30.3325C16.9061 30.3325 18.67 29.6853 20.0787 28.5812C18.2766 28.5431 16.7665 27.3629 16.2462 25.7386C16.5 25.7766 16.7538 25.802 17.0203 25.802C17.3883 25.802 17.7564 25.7512 18.099 25.6624C16.2208 25.2817 14.8121 23.632 14.8121 21.6396V21.5888C15.3578 21.8934 15.9924 22.0838 16.6649 22.1091C15.5609 21.3731 14.8375 20.1167 14.8375 18.6954C14.8375 17.934 15.0405 17.236 15.3959 16.6269C17.4137 19.1142 20.4467 20.7385 23.8477 20.9162C23.7842 20.6117 23.7461 20.2944 23.7461 19.9772C23.7461 17.7183 25.5736 15.8782 27.8451 15.8782C29.0253 15.8782 30.0913 16.3731 30.84 17.1726C31.7664 16.9949 32.6547 16.6523 33.4416 16.1827C33.137 17.1345 32.4898 17.934 31.6395 18.4416C32.4644 18.3528 33.2639 18.1243 33.9999 17.8071C33.4416 18.6193 32.7436 19.3426 31.9441 19.9264Z" fill="#333333"/>
</svg>
