<svg width="48" height="48" viewBox="0 0 48 48" fill="none" xmlns="http://www.w3.org/2000/svg">
<circle cx="24" cy="24" r="23.25" stroke="#C0C0C0" stroke-width="1.5"/>
<g clip-path="url(#clip0)">
<path d="M18.9172 31.4999H15.2891V19.8163H18.9172V31.4999ZM17.1012 18.2225C15.941 18.2225 15 17.2616 15 16.1014C15 15.5442 15.2214 15.0097 15.6154 14.6157C16.0095 14.2216 16.5439 14.0002 17.1012 14.0002C17.6584 14.0002 18.1929 14.2216 18.5869 14.6157C18.981 15.0097 19.2023 15.5442 19.2023 16.1014C19.2023 17.2616 18.2609 18.2225 17.1012 18.2225ZM32.4961 31.4999H28.8758V25.8124C28.8758 24.4569 28.8484 22.7186 26.9895 22.7186C25.1031 22.7186 24.8141 24.1913 24.8141 25.7147V31.4999H21.1898V19.8163H24.6695V21.41H24.7203C25.2047 20.492 26.3879 19.5233 28.1531 19.5233C31.825 19.5233 32.5 21.9413 32.5 25.0819V31.4999H32.4961Z" fill="#333333"/>
</g>
<defs>
<clipPath id="clip0">
<rect width="17.5" height="20" fill="white" transform="translate(15 14)"/>
</clipPath>
</defs>
</svg>
