<svg width="106" height="22" viewBox="0 0 106 22" fill="none" xmlns="http://www.w3.org/2000/svg">
<g clip-path="url(#clip0)">
<path d="M65.6971 9.93749C65.6971 8.19229 65.6971 6.44731 65.6971 4.70256C65.6971 4.55357 65.698 4.40436 65.7019 4.2554C65.7075 4.00476 65.8261 3.84623 66.0858 3.84397C66.8521 3.83781 67.6179 3.84051 68.384 3.84006C68.6819 3.84006 68.8263 4.06753 68.9901 4.25837C69.6772 5.06102 70.3625 5.86507 71.0429 6.67316C71.6279 7.36777 72.2038 8.06945 72.786 8.76638C73.071 9.1073 73.359 9.44488 73.6472 9.78283C74.1553 10.3772 74.6643 10.971 75.1768 11.5622C75.2148 11.6065 75.2796 11.6275 75.3319 11.6586C75.3562 11.6097 75.3985 11.5617 75.4017 11.5109C75.4119 11.3413 75.4072 11.1709 75.4072 11.0006C75.4083 8.93649 75.4072 6.87219 75.4083 4.80786C75.4083 4.65865 75.3979 4.50876 75.4147 4.36138C75.4511 4.04454 75.626 3.85528 75.9519 3.84596C76.6106 3.8271 77.2707 3.82684 77.93 3.84461C78.2949 3.85441 78.4611 4.03752 78.4966 4.39778C78.5091 4.52401 78.5014 4.65252 78.5014 4.78014C78.5014 8.24872 78.5014 11.7175 78.5014 15.1859C78.5014 15.3142 78.5087 15.4426 78.4966 15.5694C78.4611 15.9287 78.2942 16.1141 77.93 16.1221C77.1854 16.1393 76.44 16.1393 75.6963 16.1166C75.5489 16.1118 75.3644 16.0113 75.2664 15.8963C74.4155 14.9007 73.5883 13.8849 72.7385 12.888C72.093 12.132 71.4164 11.4026 70.769 10.6474C70.1508 9.92618 69.5531 9.18653 68.9431 8.45826C68.8917 8.39684 68.8143 8.3577 68.7484 8.30792C68.7209 8.39684 68.6678 8.48509 68.6678 8.57472C68.6631 10.6811 68.6642 12.7882 68.6642 14.8948C68.6642 15.0866 68.6699 15.2785 68.6619 15.4691C68.6364 16.0298 68.5411 16.1232 67.9739 16.1285C67.4207 16.1333 66.8673 16.1358 66.3144 16.1274C65.7642 16.1191 65.7016 16.0592 65.7 15.4907C65.695 13.7246 65.698 11.9578 65.698 10.1917C65.6971 10.1076 65.6971 10.0228 65.6971 9.93749Z" fill="#C0C0C0"/>
<path d="M55.5454 16.3941C53.3082 16.4003 51.4922 15.936 49.9076 14.7404C48.6298 13.7763 47.9143 12.4959 47.6619 10.9036C47.5217 10.0184 47.6118 9.17932 47.8127 8.33843C48.1413 6.96029 48.9383 5.89606 50.0755 5.06519C51.1832 4.25506 52.4333 3.84472 53.7811 3.70963C54.4337 3.64434 55.0898 3.57496 55.7429 3.58931C57.7433 3.63345 59.5801 4.19116 61.1477 5.47783C61.9049 6.09989 62.4123 6.93418 62.7143 7.83759C63.2559 9.4572 63.2406 11.0982 62.4653 12.6586C61.7277 14.1422 60.5438 15.1585 58.9956 15.748C57.7951 16.2058 56.555 16.4356 55.5454 16.3941ZM55.3232 13.7964C55.5572 13.7964 55.7956 13.826 56.0239 13.7906C56.4192 13.7287 56.8134 13.645 57.1987 13.5385C58.9329 13.0606 60.1052 11.6332 60.0961 9.84275C60.0895 8.47784 59.0556 7.16687 57.9545 6.71423C56.5302 6.12807 55.0447 6.10557 53.5529 6.44405C52.584 6.66329 51.757 7.17209 51.222 7.99116C50.0737 9.75 50.6077 12.0738 52.5137 13.1426C53.3799 13.6279 54.339 13.7858 55.3232 13.7964Z" fill="#C0C0C0"/>
<path d="M95.0838 9.9619C95.0838 8.19533 95.0806 6.4292 95.0847 4.66281C95.0858 3.96613 95.2109 3.83833 95.8992 3.83784C98.8578 3.83465 101.815 3.83465 104.774 3.83784C105.415 3.83833 105.453 3.88311 105.46 4.53181C105.464 4.89347 105.468 5.25558 105.457 5.61697C105.446 5.98246 105.334 6.10575 104.975 6.15308C104.807 6.17491 104.635 6.16311 104.465 6.16311C102.571 6.16356 100.677 6.16356 98.783 6.16356C98.634 6.16356 98.4853 6.16766 98.3363 6.16811C98.1573 6.16811 98.0565 6.25091 98.0565 6.43558C98.0556 7.13752 98.0556 7.83964 98.0563 8.54173C98.0563 8.72412 98.1505 8.81285 98.3315 8.81375C98.4805 8.81465 98.6295 8.81852 98.7782 8.81852C100.524 8.81901 102.269 8.81307 104.014 8.82675C104.231 8.82855 104.483 8.88543 104.654 9.00846C104.911 9.19404 104.921 10.7357 104.67 10.9436C104.524 11.0646 104.294 11.1323 104.1 11.1376C103.312 11.159 102.525 11.1464 101.738 11.1464C100.695 11.1464 99.652 11.143 98.6097 11.1474C98.0604 11.1498 98.0574 11.1557 98.0526 11.7208C98.0479 12.1888 98.0519 12.6567 98.0518 13.1252C98.0513 13.8499 98.0208 13.801 98.7627 13.801C100.444 13.8021 102.125 13.801 103.807 13.801C104.147 13.801 104.488 13.7903 104.828 13.8055C105.355 13.8282 105.453 13.9308 105.46 14.4549C105.467 14.8591 105.473 15.2644 105.455 15.6676C105.439 16.0313 105.358 16.0971 104.987 16.1264C104.86 16.1362 104.732 16.1294 104.604 16.1294C101.753 16.1294 98.9011 16.1294 96.0498 16.1294C95.9861 16.1294 95.9218 16.1312 95.8583 16.1294C95.2185 16.1159 95.0954 15.9886 95.0854 15.3249C95.0834 15.1968 95.0854 15.0694 95.0854 14.9414C95.0838 13.2819 95.0838 11.6222 95.0838 9.9619Z" fill="#C0C0C0"/>
<path d="M81.7956 9.94719C81.7956 8.24452 81.7956 6.54184 81.7956 4.8389C81.7956 4.6904 81.7869 4.54051 81.8004 4.39219C81.8418 3.95458 81.9541 3.84451 82.3997 3.83947C83.1018 3.83106 83.8046 3.837 84.5072 3.837C86.7631 3.837 89.0194 3.837 91.2754 3.837C91.4239 3.837 91.5732 3.84041 91.7219 3.83947C92.0044 3.83789 92.165 3.96709 92.1675 4.25868C92.1707 4.70558 92.1848 5.15322 92.1641 5.59903C92.1477 5.96226 91.9682 6.12601 91.6045 6.15922C91.4569 6.17263 91.3065 6.16426 91.1571 6.16426C89.242 6.16426 87.326 6.16336 85.4104 6.16493C84.7642 6.16542 84.7633 6.16861 84.7613 6.83794C84.7595 7.2851 84.7586 7.73229 84.7613 8.17896C84.7642 8.81377 84.7658 8.81741 85.3802 8.8188C86.6787 8.82173 87.9767 8.82015 89.2754 8.82015C89.8072 8.82015 90.3399 8.81057 90.8717 8.82402C91.3166 8.83447 91.3882 8.90795 91.4016 9.35033C91.4146 9.77566 91.4152 10.2019 91.4016 10.627C91.3873 11.061 91.3136 11.1392 90.8628 11.1435C89.6709 11.1533 88.4793 11.1472 87.2875 11.1472C86.5847 11.1472 85.8823 11.1561 85.1799 11.1444C84.8895 11.1394 84.7501 11.2266 84.758 11.5425C84.7731 12.1805 84.7671 12.8192 84.7617 13.4576C84.759 13.6979 84.8588 13.8077 85.1015 13.8034C85.4422 13.7973 85.7829 13.8034 86.1232 13.8034C87.8691 13.8034 89.6141 13.8006 91.3593 13.8052C92.0464 13.8066 92.1651 13.9332 92.171 14.6334C92.1747 14.974 92.1833 15.3152 92.1665 15.6546C92.149 16.0282 92.0734 16.0958 91.7114 16.1272C91.6063 16.1365 91.4992 16.1308 91.3934 16.1308C88.4559 16.1308 85.5191 16.1322 82.582 16.1308C81.8569 16.13 81.7989 16.0713 81.7964 15.3116C81.7931 13.5226 81.7956 11.7349 81.7956 9.94719Z" fill="#C0C0C0"/>
<path d="M34.4185 16.1303C33.6522 16.1303 32.8861 16.1246 32.1201 16.1312C30.6865 16.143 29.42 15.6562 28.2938 14.8051C26.4765 13.4322 25.7009 11.5547 25.8517 9.32274C25.9351 8.08657 26.393 6.96411 27.1977 5.9695C28.0745 4.8866 29.1762 4.20292 30.4832 3.82282C30.9438 3.68886 31.4341 3.59926 31.9122 3.59194C33.6569 3.56485 35.4019 3.58078 37.1467 3.58126C37.2529 3.58126 37.3596 3.58217 37.466 3.58604C37.7208 3.5949 37.8631 3.72729 37.8652 3.98315C37.87 4.57904 37.8702 5.17477 37.8643 5.77066C37.8618 6.03017 37.7087 6.15324 37.4569 6.15891C37.2866 6.16323 37.1166 6.16394 36.9465 6.16394C35.4995 6.16394 34.0518 6.14456 32.6057 6.17119C31.73 6.18712 30.9094 6.41207 30.1543 6.90243C28.7391 7.8218 27.9039 9.99162 29.1662 11.8124C29.8008 12.7285 30.6458 13.2519 31.7596 13.4418C32.7796 13.6162 33.7936 13.4882 34.8082 13.5462C35.0996 13.5628 35.1638 13.4015 35.1622 13.1507C35.156 12.2993 35.1583 11.448 35.1613 10.5969C35.1633 9.88339 35.3066 9.7317 36.0065 9.71641C36.432 9.70709 36.8587 9.69984 37.2831 9.72005C37.7637 9.74327 37.8677 9.85743 37.8693 10.3494C37.8745 12.073 37.8756 13.7963 37.8688 15.5195C37.8665 16.0663 37.801 16.1245 37.2272 16.1279C36.2908 16.1344 35.3544 16.1303 34.4185 16.1303Z" fill="#C0C0C0"/>
<path d="M41.6766 9.97904C41.6766 8.2152 41.6766 6.45111 41.6766 4.68656C41.6766 4.53802 41.677 4.3888 41.6813 4.2403C41.6902 3.98485 41.8246 3.84431 42.0798 3.84296C42.8447 3.83905 43.6099 3.83841 44.375 3.84341C44.6331 3.84503 44.7577 3.99649 44.7651 4.24849C44.7685 4.37607 44.7696 4.50391 44.7696 4.63107C44.7696 8.20202 44.7696 11.773 44.7696 15.3448C44.7696 15.4724 44.7689 15.5993 44.7644 15.7274C44.7558 15.9824 44.6211 16.1229 44.3663 16.1241C43.6012 16.1282 42.8361 16.1286 42.0707 16.1233C41.8123 16.1218 41.6875 15.9698 41.6807 15.718C41.6766 15.5697 41.6758 15.4203 41.6758 15.2715C41.6766 13.5074 41.6766 11.7429 41.6766 9.97904Z" fill="#C0C0C0"/>
<path d="M13.945 7.16007C15.2226 7.16007 16.4992 7.15617 17.7766 7.16143C18.4416 7.1639 18.5726 7.28994 18.5742 7.93883C18.5792 9.76977 18.6025 11.601 18.5649 13.4308C18.5465 14.3192 18.339 15.1954 17.9815 16.0144C16.628 19.1151 14.3096 21.0419 10.9568 21.6239C8.48242 22.0538 6.13333 21.6523 4.03875 20.2235C2.12296 18.9161 0.740541 17.1864 0.233765 14.8651C0.121853 14.3524 0.0415732 13.8224 0.0347361 13.2991C0.0106182 11.5113 0.0242922 9.72288 0.0263208 7.93511C0.026997 7.24163 0.09751 7.1677 0.792571 7.16157C1.55905 7.15383 2.32578 7.14929 3.09162 7.16364C3.65771 7.17408 3.75167 7.27825 3.75374 7.84754C3.75851 9.23091 3.7428 10.6149 3.75941 11.998C3.77102 12.9306 3.87586 13.847 4.24841 14.7231C4.59779 15.5446 5.11316 16.2402 5.79756 16.7853C6.83744 17.6142 8.03631 18.0429 9.38462 18.0222C10.6424 18.0027 11.7251 17.5494 12.7101 16.7867C13.7436 15.9874 14.4187 14.9542 14.633 13.6829C14.7624 12.9178 14.6958 12.1179 14.7033 11.3331C14.7053 11.1317 14.5568 11.0355 14.3642 11.0245C14.2154 11.0157 14.066 11.0177 13.9174 11.0177C12.704 11.0173 11.4901 11.0177 10.2769 11.0168C10.1068 11.0165 9.93279 11.0281 9.76765 10.9977C9.37756 10.9245 9.23199 10.7518 9.2268 10.341C9.21816 9.51085 9.21636 8.68089 9.22725 7.85025C9.23409 7.32732 9.3942 7.16631 9.92074 7.16311C11.263 7.15462 12.604 7.1603 13.945 7.16007Z" fill="#C0C0C0"/>
<path d="M16.6846 3.73445C16.2379 3.73445 15.7905 3.7465 15.3447 3.7308C14.9012 3.71465 14.7315 3.54883 14.7241 3.10099C14.7104 2.27125 14.7099 1.44174 14.7247 0.612005C14.7325 0.208087 14.9126 0.0188265 15.3077 0.0122523C16.2436 -0.00345062 17.1803 -0.00209821 18.1155 0.0122523C18.4785 0.0179249 18.5648 0.107298 18.5704 0.479209C18.5845 1.394 18.584 2.30924 18.5718 3.22402C18.5661 3.64981 18.4813 3.72009 18.0247 3.73193C17.5785 3.74331 17.1316 3.73445 16.6846 3.73445Z" fill="#C0C0C0"/>
<path d="M1.9153 0.00602658C2.36246 0.00602658 2.80988 -0.00535601 3.25655 0.00993367C3.6596 0.0228942 3.74559 0.102007 3.75036 0.505061C3.7631 1.42008 3.764 2.33625 3.74991 3.25131C3.74424 3.64365 3.65348 3.72506 3.23953 3.73032C2.34544 3.7417 1.4509 3.74212 0.557262 3.73032C0.113974 3.72438 0.0363983 3.64681 0.0305003 3.20262C0.0191176 2.30785 0.0186668 1.41399 0.0309512 0.519901C0.0368491 0.0902121 0.120097 0.0192856 0.574317 0.00767746C1.02054 -0.00329204 1.46814 0.00602658 1.9153 0.00602658Z" fill="#C0C0C0"/>
</g>
<defs>
<clipPath id="clip0">
<rect width="105.488" height="21.7887" fill="white"/>
</clipPath>
</defs>
</svg>
