<svg width="38" height="36" viewBox="0 0 38 36" fill="none" xmlns="http://www.w3.org/2000/svg">
<path d="M37.5 35.5H35V31.75C35 30.7554 34.6049 29.8016 33.9017 29.0983C33.1984 28.3951 32.2446 28 31.25 28H26.25C25.2554 28 24.3016 28.3951 23.5983 29.0983C22.8951 29.8016 22.5 30.7554 22.5 31.75V35.5H20V31.75C20 30.0924 20.6585 28.5027 21.8306 27.3306C23.0027 26.1585 24.5924 25.5 26.25 25.5H31.25C32.9076 25.5 34.4973 26.1585 35.6694 27.3306C36.8415 28.5027 37.5 30.0924 37.5 31.75V35.5Z" fill="#E55D2D"/>
<path d="M28.75 13C29.4917 13 30.2167 13.2199 30.8334 13.632C31.4501 14.044 31.9307 14.6297 32.2146 15.3149C32.4984 16.0002 32.5726 16.7542 32.4279 17.4816C32.2833 18.209 31.9261 18.8772 31.4017 19.4017C30.8772 19.9261 30.209 20.2833 29.4816 20.4279C28.7542 20.5726 28.0002 20.4984 27.3149 20.2145C26.6297 19.9307 26.044 19.4501 25.632 18.8334C25.2199 18.2167 25 17.4917 25 16.75C25 15.7554 25.3951 14.8016 26.0984 14.0983C26.8016 13.3951 27.7554 13 28.75 13ZM28.75 10.5C27.5139 10.5 26.3055 10.8666 25.2777 11.5533C24.2499 12.2401 23.4488 13.2162 22.9758 14.3582C22.5027 15.5003 22.3789 16.7569 22.6201 17.9693C22.8613 19.1817 23.4565 20.2953 24.3306 21.1694C25.2047 22.0435 26.3183 22.6388 27.5307 22.8799C28.7431 23.1211 29.9997 22.9973 31.1418 22.5242C32.2838 22.0512 33.2599 21.2501 33.9467 20.2223C34.6334 19.1945 35 17.9861 35 16.75C35 15.0924 34.3415 13.5027 33.1694 12.3306C31.9973 11.1585 30.4076 10.5 28.75 10.5Z" fill="#E55D2D"/>
<path d="M17.5 25.5H15V21.75C15 20.7554 14.6049 19.8016 13.9017 19.0983C13.1984 18.3951 12.2446 18 11.25 18H6.25C5.25544 18 4.30161 18.3951 3.59835 19.0983C2.89509 19.8016 2.5 20.7554 2.5 21.75V25.5H0V21.75C0 20.0924 0.65848 18.5027 1.83058 17.3306C3.00269 16.1585 4.5924 15.5 6.25 15.5H11.25C12.9076 15.5 14.4973 16.1585 15.6694 17.3306C16.8415 18.5027 17.5 20.0924 17.5 21.75V25.5Z" fill="#9068C0"/>
<path d="M8.75 3C9.49168 3 10.2167 3.21993 10.8334 3.63199C11.4501 4.04404 11.9307 4.62971 12.2146 5.31494C12.4984 6.00016 12.5726 6.75416 12.4279 7.48159C12.2833 8.20902 11.9261 8.8772 11.4017 9.40165C10.8772 9.9261 10.209 10.2833 9.48159 10.4279C8.75416 10.5726 8.00016 10.4984 7.31494 10.2145C6.62972 9.93072 6.04405 9.45007 5.63199 8.83339C5.21994 8.2167 5 7.49168 5 6.75C5 5.75544 5.39509 4.80161 6.09835 4.09835C6.80161 3.39509 7.75544 3 8.75 3ZM8.75 0.5C7.51387 0.5 6.3055 0.866556 5.27769 1.55331C4.24988 2.24007 3.4488 3.21619 2.97576 4.35823C2.50271 5.50027 2.37894 6.75693 2.62009 7.96931C2.86125 9.1817 3.45651 10.2953 4.33059 11.1694C5.20466 12.0435 6.31831 12.6388 7.53069 12.8799C8.74307 13.1211 9.99974 12.9973 11.1418 12.5242C12.2838 12.0512 13.2599 11.2501 13.9467 10.2223C14.6334 9.19451 15 7.98613 15 6.75C15 5.0924 14.3415 3.50269 13.1694 2.33058C11.9973 1.15848 10.4076 0.5 8.75 0.5Z" fill="#9068C0"/>
</svg>
