<svg width="36" height="36" viewBox="0 0 36 36" fill="none" xmlns="http://www.w3.org/2000/svg">
<path d="M6.61133 27.1149L16.6076 17.1187L18.3763 18.8862L8.37883 28.8824L6.61133 27.1149Z" fill="#9068C0"/>
<path d="M18.7522 35.5001C18.5939 35.5005 18.437 35.4708 18.2897 35.4126C18.0849 35.3309 17.9054 35.1966 17.7693 35.0232C17.6332 34.8497 17.5453 34.6434 17.5147 34.4251L16.2647 25.6751L18.7647 25.3251L19.7022 31.9126L23.7522 28.6501V19.2501C23.7513 19.0856 23.7828 18.9225 23.845 18.7702C23.9072 18.6179 23.9989 18.4794 24.1147 18.3626L29.2022 13.2751C30.2505 12.2339 31.0819 10.9952 31.6484 9.63056C32.2148 8.26595 32.505 6.80257 32.5022 5.32508V3.00008H30.1772C28.6997 2.99727 27.2363 3.28748 25.8717 3.85392C24.5071 4.42036 23.2684 5.25178 22.2272 6.30008L17.1397 11.3876C17.0229 11.5034 16.8844 11.5951 16.7321 11.6573C16.5798 11.7195 16.4167 11.751 16.2522 11.7501H6.85222L3.58972 15.8251L10.1772 16.7626L9.82722 19.2626L1.07722 18.0126C0.858895 17.982 0.652556 17.8941 0.479128 17.758C0.305701 17.6219 0.171355 17.4424 0.0897174 17.2376C0.0070687 17.0314 -0.019126 16.8068 0.01383 16.5871C0.046786 16.3674 0.137702 16.1605 0.277218 15.9876L5.27722 9.73758C5.39237 9.58797 5.53991 9.46638 5.70878 9.38195C5.87764 9.29751 6.06344 9.25243 6.25222 9.25008H15.7397L20.4522 4.52508C21.7262 3.24396 23.2418 2.22849 24.9112 1.53757C26.5806 0.846636 28.3705 0.493991 30.1772 0.500077H32.5022C33.1653 0.500077 33.8011 0.763469 34.27 1.23231C34.7388 1.70115 35.0022 2.33704 35.0022 3.00008V5.32508C35.0083 7.13179 34.6557 8.92173 33.9647 10.5911C33.2738 12.2605 32.2583 13.7761 30.9772 15.0501L26.2522 19.7626V29.2501C26.2514 29.4378 26.2082 29.623 26.126 29.7918C26.0437 29.9606 25.9245 30.1087 25.7772 30.2251L19.5272 35.2251C19.3073 35.4015 19.0342 35.4984 18.7522 35.5001Z" fill="#F6BB47"/>
</svg>
