<svg width="32" height="32" viewBox="0 0 32 32" fill="none" xmlns="http://www.w3.org/2000/svg">
<path d="M15.75 0.25C12.635 0.25 9.58985 1.17372 6.99978 2.90435C4.4097 4.63499 2.39098 7.0948 1.1989 9.97274C0.00682421 12.8507 -0.305078 16.0175 0.302639 19.0727C0.910356 22.1279 2.4104 24.9343 4.61307 27.1369C6.81575 29.3396 9.62213 30.8397 12.6773 31.4474C15.7325 32.0551 18.8993 31.7432 21.7773 30.5511C24.6552 29.359 27.115 27.3403 28.8457 24.7502C30.5763 22.1602 31.5 19.1151 31.5 16C31.5 11.8228 29.8406 7.81677 26.8869 4.86307C23.9332 1.90937 19.9272 0.25 15.75 0.25ZM15.75 29.5C13.08 29.5 10.4699 28.7082 8.24981 27.2248C6.02975 25.7414 4.29942 23.633 3.27763 21.1662C2.25585 18.6994 1.98851 15.985 2.50941 13.3663C3.03031 10.7475 4.31606 8.34207 6.20407 6.45406C8.09207 4.56605 10.4975 3.2803 13.1163 2.7594C15.735 2.2385 18.4494 2.50584 20.9162 3.52763C23.383 4.54941 25.4914 6.27974 26.9748 8.4998C28.4582 10.7199 29.25 13.33 29.25 16C29.25 19.5804 27.8277 23.0142 25.2959 25.5459C22.7642 28.0777 19.3304 29.5 15.75 29.5Z" fill="#DA75AF"/>
<path d="M20.8125 10.375C20.2562 10.375 19.7125 10.5399 19.25 10.849C18.7874 11.158 18.427 11.5973 18.2141 12.1112C18.0012 12.6251 17.9455 13.1906 18.054 13.7362C18.1626 14.2818 18.4304 14.7829 18.8238 15.1762C19.2171 15.5696 19.7182 15.8374 20.2638 15.946C20.8094 16.0545 21.3749 15.9988 21.8888 15.7859C22.4027 15.573 22.842 15.2126 23.151 14.75C23.4601 14.2875 23.625 13.7438 23.625 13.1875C23.625 12.4416 23.3287 11.7262 22.8012 11.1988C22.2738 10.6713 21.5584 10.375 20.8125 10.375Z" fill="#9068C0"/>
<path d="M6.75 12.625H13.5V14.875H6.75V12.625Z" fill="#9068C0"/>
<path d="M15.7492 25C17.3021 24.9974 18.828 24.593 20.1783 23.8262C21.5287 23.0593 22.6577 21.9561 23.4555 20.6238L21.5317 19.4988C20.9314 20.4958 20.0834 21.3206 19.0702 21.8932C18.057 22.4658 16.913 22.7667 15.7492 22.7667C14.5854 22.7667 13.4414 22.4658 12.4282 21.8932C11.415 21.3206 10.5671 20.4958 9.96672 19.4988L8.04297 20.6238C8.84078 21.9561 9.96975 23.0593 11.3201 23.8262C12.6705 24.593 14.1963 24.9974 15.7492 25Z" fill="#9068C0"/>
</svg>
