<svg width="35" height="29" viewBox="0 0 35 29" fill="none" xmlns="http://www.w3.org/2000/svg">
<path d="M30 23.0061H5C4.33716 23.0054 3.70166 22.7418 3.23296 22.2731C2.76427 21.8044 2.50066 21.1689 2.5 20.5061V3.0061C2.50066 2.34327 2.76427 1.70776 3.23296 1.23907C3.70166 0.77037 4.33716 0.506765 5 0.506104H30C30.6628 0.506765 31.2983 0.77037 31.767 1.23907C32.2357 1.70776 32.4993 2.34327 32.5 3.0061V20.5061C32.499 21.1688 32.2353 21.8041 31.7667 22.2728C31.298 22.7414 30.6627 23.0051 30 23.0061ZM5 3.0061V20.5061H30V3.0061H5Z" fill="#E48A7F"/>
<path d="M0 25.5061H35V28.0061H0V25.5061Z" fill="#9068C0"/>
</svg>
