<svg width="28" height="36" viewBox="0 0 28 36" fill="none" xmlns="http://www.w3.org/2000/svg">
<path d="M13.75 21C12.5139 21 11.3055 20.6334 10.2777 19.9467C9.24988 19.2599 8.4488 18.2838 7.97576 17.1418C7.50271 15.9997 7.37894 14.7431 7.62009 13.5307C7.86125 12.3183 8.45651 11.2047 9.33059 10.3306C10.2047 9.45651 11.3183 8.86125 12.5307 8.62009C13.7431 8.37894 14.9997 8.50271 16.1418 8.97576C17.2838 9.4488 18.2599 10.2499 18.9467 11.2777C19.6334 12.3055 20 13.5139 20 14.75C19.998 16.407 19.3389 17.9956 18.1672 19.1672C16.9956 20.3389 15.407 20.998 13.75 21ZM13.75 11C13.0083 11 12.2833 11.2199 11.6666 11.632C11.0499 12.044 10.5693 12.6297 10.2855 13.3149C10.0016 14.0002 9.92736 14.7542 10.0721 15.4816C10.2168 16.209 10.5739 16.8772 11.0984 17.4017C11.6228 17.9261 12.291 18.2833 13.0184 18.4279C13.7458 18.5726 14.4998 18.4984 15.1851 18.2146C15.8703 17.9307 16.456 17.4501 16.868 16.8334C17.2801 16.2167 17.5 15.4917 17.5 14.75C17.499 13.7557 17.1036 12.8025 16.4006 12.0994C15.6975 11.3964 14.7443 11.001 13.75 11Z" fill="#8BBE45" stroke="#8BBE45" stroke-width="0.5"/>
<path d="M13.75 36L3.20501 23.5638C3.05849 23.377 2.91349 23.1891 2.77001 23C0.96874 20.6272 -0.00435149 17.729 1.46286e-05 14.75C1.46286e-05 11.1033 1.44867 7.60591 4.0273 5.02728C6.60592 2.44866 10.1033 1 13.75 1C17.3967 1 20.8941 2.44866 23.4727 5.02728C26.0514 7.60591 27.5 11.1033 27.5 14.75C27.5044 17.7277 26.5317 20.6246 24.7313 22.9963L24.73 23C24.73 23 24.355 23.4925 24.2988 23.5588L13.75 36ZM4.76502 21.4938C4.76752 21.4938 5.05751 21.8787 5.12376 21.9612L13.75 32.135L22.3875 21.9475C22.4425 21.8787 22.735 21.4913 22.7363 21.49C24.2077 19.5514 25.0029 17.1838 25 14.75C25 11.7663 23.8147 8.90483 21.705 6.79505C19.5952 4.68526 16.7337 3.5 13.75 3.5C10.7663 3.5 7.90485 4.68526 5.79506 6.79505C3.68528 8.90483 2.50001 11.7663 2.50001 14.75C2.49739 17.1853 3.29349 19.5543 4.76626 21.4938H4.76502Z" fill="#F1C191" stroke="#F1C191" stroke-width="0.5"/>
</svg>
