<svg width="30" height="44" viewBox="0 0 30 44" fill="none" xmlns="http://www.w3.org/2000/svg">
<path d="M21.3175 3.77097L14.6367 15.3367L7.95589 26.9383C5.32158 24.9631 3.50199 22.0915 2.84094 18.866C2.1799 15.6404 2.7232 12.2845 4.36818 9.43234C6.01316 6.58015 8.64588 4.42928 11.7688 3.38616C14.8918 2.34305 18.2886 2.47994 21.3175 3.77097ZM24.0114 2.94485C22.2554 1.81901 20.2893 1.06098 18.232 0.71659C16.1747 0.372202 14.0689 0.448612 12.042 0.941199C10.015 1.43379 8.10905 2.33232 6.43925 3.58247C4.76945 4.83262 3.37052 6.40842 2.32705 8.21459C1.28357 10.0208 0.617228 12.0198 0.3683 14.0908C0.119373 16.1619 0.293033 18.2618 0.878782 20.2638C1.46453 22.2658 2.4502 24.1283 3.77619 25.7385C5.10219 27.3487 6.74097 28.6733 8.59344 29.6322L16.3069 16.2795L24.0204 2.94485H24.0114Z" fill="#E55D2D"/>
<path d="M13.8555 28.2493L6.14203 41.611C9.67972 43.5562 13.839 44.0372 17.7273 42.9506C21.6156 41.864 24.9229 39.2965 26.9396 35.799C28.9563 32.3015 29.5216 28.1528 28.5142 24.2433C27.5067 20.3338 25.0068 16.975 21.551 14.8877L13.8555 28.2493Z" fill="#E55D2D"/>
</svg>
