<svg width="33" height="49" viewBox="0 0 33 49" fill="none" xmlns="http://www.w3.org/2000/svg">
<path d="M23.7402 4.2L16.3002 17.08L8.86019 30C5.92653 27.8004 3.90016 24.6024 3.164 21.0103C2.42784 17.4183 3.03288 13.681 4.86479 10.5047C6.69669 7.32841 9.62858 4.93312 13.1064 3.77146C16.5842 2.60981 20.3671 2.76226 23.7402 4.2ZM26.7402 3.28C24.7846 2.02622 22.5951 1.18205 20.304 0.798528C18.0129 0.415005 15.6679 0.500098 13.4106 1.04866C11.1533 1.59722 9.03075 2.59786 7.1712 3.99007C5.31165 5.38229 3.75375 7.13716 2.5917 9.14858C1.42965 11.16 0.687584 13.3862 0.410369 15.6926C0.133154 17.9989 0.326549 20.3376 0.97886 22.5671C1.63117 24.7966 2.72885 26.8706 4.20552 28.6638C5.6822 30.457 7.5072 31.9322 9.57019 33L18.1602 18.13L26.7502 3.28H26.7402Z" fill="#F8F8F8"/>
<path d="M15.4303 31.46L6.84033 46.34C10.78 48.5063 15.412 49.042 19.7421 47.8319C24.0722 46.6218 27.7554 43.7625 30.0013 39.8676C32.2472 35.9727 32.8767 31.3525 31.7548 26.9988C30.6328 22.645 27.8489 18.9045 24.0003 16.58L15.4303 31.46Z" fill="#F8F8F8"/>
</svg>
