<svg width="48" height="48" viewBox="0 0 48 48" fill="none" xmlns="http://www.w3.org/2000/svg">
<path d="M20.2371 40.4286L18 39.1429L23.1429 30.1429H30.8571C31.5391 30.1429 32.1932 29.8719 32.6754 29.3897C33.1577 28.9075 33.4286 28.2534 33.4286 27.5714V12.1429C33.4286 11.4609 33.1577 10.8068 32.6754 10.3246C32.1932 9.84235 31.5391 9.57143 30.8571 9.57143H5.14286C4.46087 9.57143 3.80682 9.84235 3.32458 10.3246C2.84235 10.8068 2.57143 11.4609 2.57143 12.1429V27.5714C2.57143 28.2534 2.84235 28.9075 3.32458 29.3897C3.80682 29.8719 4.46087 30.1429 5.14286 30.1429H16.7143V32.7143H5.14286C3.77889 32.7143 2.47078 32.1724 1.50631 31.208C0.541835 30.2435 0 28.9354 0 27.5714V12.1429C0 10.7789 0.541835 9.47078 1.50631 8.50631C2.47078 7.54183 3.77889 7 5.14286 7H30.8571C32.2211 7 33.5292 7.54183 34.4937 8.50631C35.4582 9.47078 36 10.7789 36 12.1429V27.5714C36 28.9354 35.4582 30.2435 34.4937 31.208C33.5292 32.1724 32.2211 32.7143 30.8571 32.7143H24.6343L20.2371 40.4286Z" fill="#C0C0C0"/>
<path d="M19.2857 13.4287H16.7143V18.5716H11.5714V21.143H16.7143V26.2859H19.2857V21.143H24.4286V18.5716H19.2857V13.4287Z" fill="#8BBE45"/>
</svg>
