<svg width="40" height="40" viewBox="0 0 40 40" fill="none" xmlns="http://www.w3.org/2000/svg">
<path d="M8.57025 10.8572H20.6845C20.9677 12.2446 21.7561 13.4775 22.8966 14.3168C24.0372 15.1561 25.4488 15.542 26.8577 15.3996C28.2666 15.2573 29.5725 14.5969 30.5222 13.5465C31.4718 12.496 31.9976 11.1304 31.9976 9.71429C31.9976 8.29821 31.4718 6.93256 30.5222 5.88212C29.5725 4.83168 28.2666 4.17128 26.8577 4.02895C25.4488 3.88662 24.0372 4.2725 22.8966 5.11179C21.7561 5.95107 20.9677 7.18396 20.6845 8.57144H8.57025C6.90318 8.57144 5.30439 9.23368 4.12559 10.4125C2.94679 11.5913 2.28455 13.1901 2.28455 14.8571C2.28455 16.5242 2.94679 18.123 4.12559 19.3018C5.30439 20.4806 6.90318 21.1429 8.57025 21.1429H21.1417C22.2025 21.1429 23.22 21.5643 23.9701 22.3144C24.7202 23.0646 25.1417 24.082 25.1417 25.1429C25.1417 26.2037 24.7202 27.2211 23.9701 27.9713C23.22 28.7214 22.2025 29.1429 21.1417 29.1429H11.3131C11.0299 27.7554 10.2416 26.5225 9.10101 25.6832C7.96044 24.8439 6.54886 24.458 5.13994 24.6004C3.73103 24.7427 2.42515 25.4031 1.47548 26.4535C0.525805 27.504 0 28.8696 0 30.2857C0 31.7018 0.525805 33.0674 1.47548 34.1179C2.42515 35.1683 3.73103 35.8287 5.13994 35.9711C6.54886 36.1134 7.96044 35.7275 9.10101 34.8882C10.2416 34.0489 11.0299 32.816 11.3131 31.4286H21.1417C22.8087 31.4286 24.4075 30.7663 25.5863 29.5875C26.7651 28.4087 27.4274 26.8099 27.4274 25.1429C27.4274 23.4758 26.7651 21.877 25.5863 20.6982C24.4075 19.5194 22.8087 18.8571 21.1417 18.8571H8.57025C7.50939 18.8571 6.49198 18.4357 5.74183 17.6856C4.99169 16.9354 4.57026 15.918 4.57026 14.8571C4.57026 13.7963 4.99169 12.7789 5.74183 12.0287C6.49198 11.2786 7.50939 10.8572 8.57025 10.8572ZM26.2845 6.28573C26.9626 6.28573 27.6255 6.48681 28.1893 6.86354C28.7532 7.24028 29.1926 7.77575 29.4521 8.40224C29.7116 9.02873 29.7795 9.7181 29.6472 10.3832C29.5149 11.0483 29.1884 11.6592 28.7089 12.1387C28.2294 12.6182 27.6185 12.9447 26.9534 13.077C26.2883 13.2093 25.599 13.1414 24.9725 12.8819C24.346 12.6224 23.8105 12.1829 23.4338 11.6191C23.057 11.0553 22.856 10.3924 22.856 9.71429C22.856 8.80498 23.2172 7.93291 23.8602 7.28993C24.5031 6.64695 25.3752 6.28573 26.2845 6.28573ZM5.71311 33.7143C5.03501 33.7143 4.37213 33.5132 3.8083 33.1365C3.24448 32.7597 2.80503 32.2243 2.54553 31.5978C2.28603 30.9713 2.21813 30.2819 2.35043 29.6168C2.48272 28.9517 2.80926 28.3408 3.28875 27.8613C3.76824 27.3818 4.37916 27.0553 5.04423 26.923C5.70931 26.7907 6.39868 26.8586 7.02517 27.1181C7.65166 27.3776 8.18713 27.8171 8.56387 28.3809C8.9406 28.9447 9.14168 29.6076 9.14168 30.2857C9.14168 31.195 8.78046 32.0671 8.13748 32.7101C7.4945 33.3531 6.62243 33.7143 5.71311 33.7143Z" fill="#C0C0C0"/>
<circle cx="26.2222" cy="9.77778" r="5.77778" fill="#E48A7F"/>
<circle cx="5.77778" cy="30.2221" r="5.77778" fill="#E48A7F"/>
</svg>
