<svg width="83" height="29" viewBox="0 0 83 29" fill="none" xmlns="http://www.w3.org/2000/svg">
<g clip-path="url(#clip0)">
<path d="M65.0435 22.6434C64.9909 22.6257 64.9751 22.6373 64.9587 22.6646C64.5672 23.3287 63.953 23.6895 63.2267 23.8316C61.9414 24.0865 60.7443 23.8398 59.6866 23.0527C58.8148 22.4036 58.3256 21.5078 58.1835 20.4406C58.0259 19.3611 58.1954 18.2592 58.6699 17.277C59.3621 15.8422 60.51 14.9778 62.0576 14.643C62.6847 14.4988 63.3324 14.4664 63.9707 14.5474C65.5634 14.7653 66.6471 15.6262 67.2354 17.1124C67.4413 17.6151 67.548 18.1529 67.5497 18.6962C67.5381 20.2957 67.6064 21.8932 67.6344 23.492C67.6477 24.1232 67.5401 24.751 67.3174 25.3417C66.8049 26.6973 65.8613 27.6211 64.4887 28.0788C63.3829 28.4519 62.1904 28.4828 61.0669 28.1677C60.6518 28.0588 60.2599 27.8757 59.9101 27.6272C59.319 27.2022 58.9863 26.6453 59.0218 25.8958C59.0341 25.6321 59.0218 25.3669 59.0252 25.1025C59.0252 25.0506 59.0369 24.9959 59.0902 24.9788C59.1153 24.9734 59.1415 24.9753 59.1657 24.9841C59.1898 24.9929 59.211 25.0084 59.2268 25.0287C59.4657 25.2537 59.7396 25.4383 60.0379 25.5753C60.4491 25.7663 60.8845 25.9003 61.332 25.9737C61.7882 26.0502 62.2516 26.0759 62.7135 26.0502C63.0917 26.038 63.465 25.9608 63.817 25.822C64.4893 25.5487 64.8911 25.0479 65.0319 24.3434C65.1074 23.9841 65.1253 23.6151 65.0852 23.2502C65.0633 23.0472 65.0571 22.8388 65.0435 22.6434ZM64.995 19.2271C64.995 18.608 64.9266 18.2227 64.7565 17.8455C64.4203 17.0891 63.776 16.74 62.9704 16.781C62.1649 16.822 61.5356 17.2224 61.142 17.935C60.9254 18.313 60.7957 18.7344 60.7624 19.1688C60.7291 19.6031 60.7929 20.0394 60.9493 20.446C61.2752 21.3343 62.1109 21.9547 63.3114 21.7046C64.063 21.5475 64.5413 21.0582 64.8098 20.3538C64.9411 19.9937 65.0039 19.6123 64.995 19.2291V19.2271Z" fill="#C0C0C0"/>
<path d="M9.469 15.2974C9.37471 15.2892 9.33234 15.2188 9.27973 15.1689C8.58689 14.5294 7.75535 14.2123 6.83157 14.0989C6.28126 14.0314 5.72468 14.0325 5.17464 14.1023C4.79781 14.138 4.43024 14.24 4.08893 14.4037C3.52933 14.6906 3.25739 15.1457 3.27583 15.7784C3.27769 15.9236 3.31096 16.0667 3.37335 16.1979C3.43574 16.329 3.52578 16.4451 3.63728 16.5382C3.81097 16.6843 4.00589 16.8032 4.21533 16.8908C4.69065 17.0916 5.18327 17.2487 5.6871 17.3602C6.11482 17.4627 6.54665 17.5515 6.97096 17.6683C7.54472 17.8202 8.08619 18.0749 8.56913 18.4199C9.26333 18.9242 9.73069 19.589 9.83318 20.4444C10.0634 22.3371 9.3098 24.1539 7.22787 24.9151C6.29042 25.2567 5.31471 25.3387 4.32534 25.2608C3.83488 25.2332 3.3496 25.146 2.88022 25.0012C2.55587 24.9002 2.24723 24.7544 1.96327 24.568C1.31211 24.1252 0.973213 23.511 0.956814 22.7232C0.949298 22.3706 0.956814 22.018 0.956814 21.6655C0.956814 21.5869 1.02104 21.5534 1.08185 21.5971C1.16248 21.6573 1.23832 21.7242 1.31758 21.7857C2.5215 22.7204 3.88189 23.0839 5.39192 22.9076C5.71846 22.8779 6.03902 22.8012 6.34372 22.6801C6.67989 22.538 6.95456 22.3248 7.1083 21.9859C7.29346 21.5759 7.29756 21.1544 7.19507 20.7294C7.14314 20.5148 6.99009 20.357 6.81654 20.2251C6.6218 20.0854 6.40834 19.9739 6.18247 19.8937C5.60359 19.684 5.00975 19.5182 4.40596 19.3977C3.94938 19.3066 3.50015 19.1819 3.06197 19.0246C2.57505 18.8504 2.12144 18.5944 1.72071 18.2675C0.936316 17.6075 0.604247 16.7521 0.684873 15.7538C0.831092 13.9971 1.80749 12.8383 3.38857 12.1516C3.94549 11.9127 4.54228 11.7803 5.14799 11.7614C5.87909 11.7334 6.60814 11.7464 7.32489 11.9206C7.71854 12.0087 8.09626 12.1569 8.44477 12.36C8.8083 12.5668 9.10548 12.8727 9.3016 13.2421C9.41331 13.4406 9.47893 13.6618 9.49359 13.8891C9.50521 14.3292 9.50863 14.7699 9.51204 15.2106C9.51204 15.2379 9.48676 15.2694 9.469 15.2974Z" fill="#C0C0C0"/>
<path d="M22.5242 20.9969C22.0589 20.9969 21.5929 20.9969 21.127 20.9969C20.9848 20.9969 20.9473 21.0461 20.9773 21.1834C21.0515 21.5296 21.2097 21.8522 21.4378 22.1229C21.8519 22.6156 22.3903 22.893 23.0094 23.0317C23.5205 23.1465 24.0343 23.1266 24.5508 23.0836C24.9401 23.0523 25.3245 22.9766 25.6967 22.8581C26.1428 22.7202 26.5576 22.4962 26.9177 22.1988C26.9956 22.1304 27.0728 22.1673 27.0728 22.2637C27.0728 22.6285 27.0946 22.9927 27.0345 23.3569C26.997 23.6129 26.9064 23.8583 26.7686 24.0774C26.6309 24.2965 26.4489 24.4844 26.2344 24.6292C25.8685 24.8776 25.4539 25.0456 25.0182 25.1218C24.2495 25.2721 23.476 25.3357 22.691 25.2325C20.814 24.9872 19.0341 23.6329 18.4772 21.5572C18.3045 20.9118 18.2453 20.2413 18.3023 19.5757C18.3406 18.9851 18.4533 18.4018 18.6378 17.8395C19.0115 16.7586 19.6436 15.8723 20.6193 15.2533C21.2691 14.8433 21.9824 14.624 22.7456 14.5379C23.5357 14.4373 24.3383 14.5517 25.0687 14.8693C26.2891 15.4077 27.0707 16.324 27.3584 17.6359C27.4665 18.0905 27.4821 18.5622 27.4042 19.0229C27.3037 19.5695 27.0345 20.0055 26.5651 20.3116C26.2221 20.5242 25.8444 20.6752 25.4493 20.7577C24.8471 20.8927 24.2331 20.9678 23.6161 20.9819C23.2512 20.9928 22.8864 20.9819 22.5229 20.9819L22.5242 20.9969ZM22.2181 19.1807C22.7279 19.1753 23.2806 19.1807 23.83 19.1022C24.092 19.0719 24.3487 19.0064 24.5932 18.9074C24.7296 18.8551 24.8464 18.7616 24.9273 18.6399C25.0082 18.5182 25.0493 18.3743 25.0448 18.2283C25.053 17.6441 24.8207 17.1296 24.2249 16.8617C23.6925 16.6222 23.0936 16.5739 22.5297 16.7251C21.8499 16.9014 21.405 17.3591 21.129 17.9919C20.9958 18.2959 20.9575 18.6205 20.9288 18.9484C20.911 19.1459 20.9322 19.1746 21.1208 19.1766C21.472 19.1835 21.8239 19.1807 22.2181 19.1807Z" fill="#C0C0C0"/>
<path d="M56.5477 21.6628C56.5477 22.6194 56.5477 23.5759 56.5477 24.5325C56.5477 24.6084 56.5477 24.6842 56.5477 24.7594C56.5415 25.0443 56.5367 25.0504 56.2463 25.0532C55.9443 25.0532 55.6416 25.0641 55.3444 24.9937C54.6939 24.84 54.2355 24.4744 54.0414 23.8178C53.9833 23.6217 53.9909 23.4188 53.9909 23.2172C53.9909 21.945 53.9909 20.673 53.9909 19.4012C53.9955 19.0103 53.9528 18.6202 53.8638 18.2396C53.8134 18.0313 53.7338 17.8312 53.6274 17.6452C53.4411 17.3115 53.1404 17.0564 52.7808 16.927C52.3418 16.7588 51.8615 16.7309 51.406 16.8471C51.0107 16.945 50.6672 17.1892 50.4447 17.5304C50.2488 17.8251 50.1237 18.1611 50.0791 18.5122C50.0412 18.7866 50.022 19.0633 50.0217 19.3403C50.0249 21.1041 50.0249 22.8674 50.0217 24.6302C50.0217 25.0921 50.0518 25.0532 49.5885 25.0532C49.337 25.0627 49.0851 25.0462 48.8369 25.004C48.0587 24.8455 47.5695 24.3207 47.4861 23.5377C47.4726 23.3998 47.4662 23.2614 47.467 23.1229C47.467 21.7746 47.467 20.427 47.467 19.08C47.467 18.5334 47.5182 17.9977 47.689 17.4778C48.1318 16.131 49.0153 15.21 50.3688 14.7706C51.3862 14.4406 52.4187 14.3935 53.4559 14.6914C55.0841 15.1608 56.0523 16.2527 56.4253 17.8911C56.5121 18.3118 56.5529 18.7407 56.547 19.1702C56.5511 19.9997 56.5477 20.8312 56.5477 21.6628Z" fill="#C0C0C0"/>
<path d="M11.5994 18.2548C11.5994 17.2087 11.5994 16.1633 11.5994 15.1179C11.5949 14.9164 11.6059 14.715 11.6322 14.5152C11.7627 13.6755 12.2588 13.0763 12.9304 12.6062C13.2598 12.3766 13.6424 12.3814 14.0237 12.4121C14.0557 12.4141 14.0857 12.4286 14.107 12.4525C14.1284 12.4764 14.1395 12.5078 14.1378 12.5399C14.1426 12.628 14.1426 12.7162 14.1426 12.8043C14.1426 13.3079 14.1426 13.8121 14.1426 14.3157C14.1426 14.4039 14.1426 14.492 14.1426 14.5801C14.1401 14.599 14.1418 14.6183 14.1477 14.6364C14.1536 14.6545 14.1634 14.6712 14.1765 14.685C14.1896 14.6989 14.2056 14.7097 14.2233 14.7166C14.2411 14.7235 14.2602 14.7264 14.2792 14.725C14.3803 14.725 14.4808 14.7291 14.5812 14.7291H17.2268C17.3027 14.7291 17.3778 14.7291 17.4537 14.7291C17.699 14.7346 17.7044 14.7387 17.7085 14.988C17.7085 15.2026 17.7085 15.4165 17.7085 15.6303C17.7038 16.3587 17.2631 16.8718 16.5415 16.9764C16.3542 17.0006 16.1654 17.0123 15.9765 17.0112C15.5105 17.016 15.0445 17.0112 14.5785 17.0112C14.4903 17.0112 14.4022 17.0112 14.3141 17.0112C14.1918 17.018 14.1521 17.0543 14.1446 17.1656C14.1391 17.2408 14.1405 17.3166 14.1405 17.3925C14.1405 18.5887 14.1405 19.7853 14.1405 20.9824C14.1308 21.2722 14.1614 21.5619 14.2314 21.8433C14.4077 22.4583 14.7855 22.7999 15.4456 22.86C16.1514 22.9201 16.8558 22.8832 17.5165 22.5717C17.6566 22.5034 17.7044 22.5355 17.7065 22.6824C17.7065 22.9557 17.7167 23.2372 17.7065 23.5132C17.6744 24.1787 17.3539 24.6529 16.7417 24.9269C16.5119 25.0313 16.2666 25.0974 16.0154 25.1223C15.3089 25.1907 14.6058 25.1633 13.9205 24.9542C12.7767 24.6065 12.0586 23.8453 11.7538 22.6933C11.6458 22.2784 11.5925 21.8511 11.5953 21.4224C11.5953 20.3647 11.5953 19.3068 11.5953 18.2486L11.5994 18.2548Z" fill="#C0C0C0"/>
<path d="M35.9368 16.9382C35.9368 15.1753 35.9368 13.413 35.9368 11.651C35.9368 11.2889 35.9252 11.3032 36.2894 11.3046C36.4786 11.3046 36.6672 11.3046 36.8558 11.3087C37.0702 11.3144 37.2821 11.3564 37.4824 11.4331C37.9982 11.6189 38.3071 11.9886 38.4389 12.5154C38.4876 12.7367 38.5092 12.9632 38.5032 13.1898C38.5032 15.9338 38.5032 18.6778 38.5032 21.4218C38.5032 21.5981 38.5032 21.7751 38.5148 21.95C38.5578 22.4802 38.8339 22.8116 39.3422 22.9475C39.5612 23.0064 39.7871 23.0358 40.0139 23.035C40.266 23.035 40.5174 23.035 40.7696 23.0391C40.8536 23.0391 40.9192 23.0719 40.9219 23.1662C40.9315 23.5078 40.9458 23.8495 40.8536 24.1788C40.8078 24.3696 40.7144 24.5457 40.5821 24.6906C40.4499 24.8355 40.283 24.9446 40.0972 25.0076C39.9213 25.073 39.7375 25.1146 39.5506 25.1313C38.985 25.1831 38.4147 25.1239 37.8718 24.957C36.8367 24.6291 36.2477 23.9075 36.027 22.8608C35.9652 22.5391 35.9372 22.2119 35.9436 21.8844C35.9395 20.2359 35.9373 18.5871 35.9368 16.9382Z" fill="#C0C0C0"/>
<path d="M31.5263 21.7669C31.5263 22.7504 31.5263 23.7332 31.5263 24.7153C31.5263 25.0569 31.5222 25.0569 31.1976 25.0569C30.8731 25.0569 30.5424 25.0637 30.2199 24.9886C29.6398 24.8587 29.2059 24.554 29.0214 23.9637C28.9625 23.7706 28.9332 23.5697 28.9346 23.3679C28.9346 21.7806 28.9271 20.1934 28.9394 18.6061C28.9338 17.9359 29.0736 17.2724 29.3494 16.6615C29.868 15.5478 30.7405 14.9055 31.9458 14.7053C32.4428 14.6131 32.9528 14.6152 33.449 14.7115C33.6843 14.7571 33.9098 14.8436 34.1152 14.967C34.3461 15.0997 34.5382 15.2905 34.6725 15.5204C34.8069 15.7503 34.8788 16.0113 34.8812 16.2775C34.8907 16.529 34.8859 16.7811 34.8812 17.0332C34.8812 17.2164 34.832 17.2451 34.6454 17.1863C34.5614 17.1603 34.4794 17.1269 34.3954 17.1002C33.9134 16.9473 33.4036 16.9025 32.9024 16.969C32.3271 17.0455 31.9301 17.3557 31.7169 17.8948C31.6208 18.1284 31.5649 18.3765 31.5516 18.6287C31.5393 18.9177 31.529 19.2074 31.5283 19.4971C31.5242 20.2535 31.5263 21.0092 31.5263 21.7669Z" fill="#C0C0C0"/>
<path d="M41.9134 18.7754C41.9134 17.6157 41.9134 16.4566 41.9134 15.2982C41.9134 14.9628 41.9134 14.9621 42.2393 14.9566C42.5414 14.9438 42.8441 14.9619 43.1426 15.0106C43.819 15.1472 44.2358 15.5476 44.3991 16.2125C44.4556 16.4589 44.482 16.7113 44.4777 16.9641C44.4745 18.4759 44.4745 19.9878 44.4777 21.4996C44.4777 21.6629 44.4736 21.8276 44.4893 21.9902C44.5378 22.4856 44.7585 22.86 45.3591 22.9823C45.6323 23.0273 45.9092 23.0451 46.1859 23.0356C46.5227 23.0356 46.5214 23.0322 46.5193 23.3677C46.5291 23.6446 46.5087 23.9219 46.4585 24.1944C46.3505 24.6727 46.0711 24.9713 45.5894 25.0827C45.4302 25.1199 45.2677 25.141 45.1043 25.1455C44.7009 25.1586 44.2978 25.1126 43.9078 25.0089C42.9513 24.7465 42.3472 24.1261 42.0726 23.1818C41.962 22.7935 41.9081 22.3912 41.9127 21.9875C41.9127 20.9168 41.9127 19.8461 41.9127 18.7761L41.9134 18.7754Z" fill="#C0C0C0"/>
<path d="M41.6866 12.4988C41.6875 12.1051 41.8442 11.7277 42.1226 11.4492C42.4009 11.1707 42.7782 11.0138 43.172 11.0127C44.0001 11.0127 44.7107 11.7103 44.6847 12.522C44.6794 12.9172 44.5196 13.2945 44.2396 13.5732C43.9595 13.852 43.5815 14.0101 43.1863 14.0136C42.9877 14.015 42.7908 13.9767 42.6073 13.9009C42.4237 13.825 42.2571 13.7133 42.1174 13.5721C41.9776 13.431 41.8675 13.2633 41.7935 13.079C41.7196 12.8947 41.6832 12.6974 41.6866 12.4988Z" fill="#C0C0C0"/>
<path d="M82.4854 7.4713C82.5024 11.293 79.4008 14.5488 75.4072 14.554C71.5112 14.5586 68.3133 11.4178 68.3163 7.46401C68.3194 3.45864 71.581 0.372191 75.4139 0.380387C79.3382 0.388584 82.5045 3.59221 82.4854 7.4713ZM75.6808 4.67324C75.6683 5.81651 76.6267 6.74302 77.7499 6.74271C78.8237 6.74271 79.8173 5.8757 79.8197 4.67021C79.8221 3.45348 78.8282 2.59254 77.7603 2.59041C76.6565 2.58829 75.6677 3.50812 75.6808 4.67324Z" fill="#C0C0C0"/>
<path d="M75.6808 4.67317C75.6677 3.50804 76.6565 2.58821 77.7603 2.59034C78.8282 2.59246 79.8221 3.4534 79.8197 4.67013C79.8173 5.87563 78.8237 6.74264 77.7499 6.74264C76.6267 6.74264 75.6683 5.81643 75.6808 4.67317Z" fill="white"/>
</g>
<defs>
<clipPath id="clip0">
<rect width="81.8558" height="28.0141" fill="white" transform="translate(0.672546 0.380371)"/>
</clipPath>
</defs>
</svg>
