<svg width="160" height="160" viewBox="0 0 160 160" fill="none" xmlns="http://www.w3.org/2000/svg">
<mask id="mask0" mask-type="alpha" maskUnits="userSpaceOnUse" x="0" y="0" width="160" height="160">
<path d="M160 0H0V160H160V0Z" fill="#E55C2C"/>
</mask>
<g mask="url(#mask0)">
<path d="M159.36 0.64V159.36H0.64V0.64H159.36ZM160 0H0V160H160V0Z" fill="#E55C2C"/>
<g opacity="0.12">
<path opacity="0.12" d="M96.1694 32.0095L78.8478 62.0095L61.5262 92.0096C54.9489 86.7888 50.4665 79.3784 48.8961 71.129C47.3256 62.8797 48.7717 54.3407 52.9706 47.0684C57.1695 39.7961 63.8418 34.2746 71.7713 31.5105C79.7008 28.7463 88.3596 28.9234 96.1694 32.0095ZM103.177 29.8687C84.1726 18.8959 59.507 25.5071 48.5374 44.5087C37.5678 63.5103 44.1726 88.1792 63.1774 99.152L83.1774 64.5087L103.177 29.8687Z" fill="#E55C2C"/>
<path opacity="0.12" d="M76.8286 95.4906L56.8286 130.131C75.8302 141.103 100.499 134.492 111.469 115.491C122.438 96.489 115.83 71.8202 96.8286 60.8506L76.8286 95.4906Z" fill="#E55C2C"/>
</g>
<g opacity="0.25">
<path opacity="0.25" d="M221.027 -254.269L-138.973 369.271" stroke="#E55C2C" stroke-miterlimit="10"/>
<path opacity="0.25" d="M229.686 -249.271L-130.313 374.269" stroke="#E55C2C" stroke-miterlimit="10"/>
<path opacity="0.25" d="M238.349 -244.269L-121.651 379.271" stroke="#E55C2C" stroke-miterlimit="10"/>
<path opacity="0.25" d="M247.008 -239.271L-112.992 384.269" stroke="#E55C2C" stroke-miterlimit="10"/>
<path opacity="0.25" d="M255.667 -234.269L-104.333 389.271" stroke="#E55C2C" stroke-miterlimit="10"/>
<path opacity="0.25" d="M251.337 -236.768L-108.663 386.769" stroke="#E55C2C" stroke-miterlimit="10"/>
<path opacity="0.25" d="M264.329 -229.271L-95.6704 394.269" stroke="#E55C2C" stroke-miterlimit="10"/>
<path opacity="0.25" d="M272.989 -224.269L-87.0112 399.271" stroke="#E55C2C" stroke-miterlimit="10"/>
<path opacity="0.25" d="M281.648 -219.271L-78.3521 404.269" stroke="#E55C2C" stroke-miterlimit="10"/>
<path opacity="0.25" d="M290.31 -214.269L-69.6899 409.271" stroke="#E55C2C" stroke-miterlimit="10"/>
<path opacity="0.25" d="M298.97 -209.271L-61.0303 414.269" stroke="#E55C2C" stroke-miterlimit="10"/>
<path opacity="0.25" d="M-254.272 -61.0264L369.267 298.974" stroke="#E55C2C" stroke-miterlimit="10"/>
<path opacity="0.25" d="M-249.271 -69.6895L374.269 290.311" stroke="#E55C2C" stroke-miterlimit="10"/>
<path opacity="0.25" d="M-244.272 -78.3486L379.267 281.651" stroke="#E55C2C" stroke-miterlimit="10"/>
<path opacity="0.25" d="M-239.271 -87.0078L384.269 272.992" stroke="#E55C2C" stroke-miterlimit="10"/>
<path opacity="0.25" d="M-242.678 -83.2031L380.861 276.797" stroke="#E55C2C" stroke-miterlimit="10"/>
<path opacity="0.25" d="M-234.272 -95.6699L389.267 264.33" stroke="#E55C2C" stroke-miterlimit="10"/>
<path opacity="0.25" d="M-229.271 -104.329L394.269 255.671" stroke="#E55C2C" stroke-miterlimit="10"/>
<path opacity="0.25" d="M-224.272 -112.988L399.267 247.012" stroke="#E55C2C" stroke-miterlimit="10"/>
<path opacity="0.25" d="M-219.271 -121.651L404.269 238.349" stroke="#E55C2C" stroke-miterlimit="10"/>
<path opacity="0.25" d="M-214.272 -130.311L409.267 229.69" stroke="#E55C2C" stroke-miterlimit="10"/>
<path opacity="0.25" d="M-209.271 -138.97L414.269 221.03" stroke="#E55C2C" stroke-miterlimit="10"/>
<path opacity="0.25" d="M-204.272 -147.632L419.267 212.368" stroke="#E55C2C" stroke-miterlimit="10"/>
<path opacity="0.25" d="M-207.677 -143.424L415.859 216.576" stroke="#E55C2C" stroke-miterlimit="10"/>
<path opacity="0.25" d="M-259.271 -52.3682L364.269 307.632" stroke="#E55C2C" stroke-miterlimit="10"/>
<path opacity="0.25" d="M76.8286 135.491C98.92 135.491 116.829 117.583 116.829 95.4912C116.829 73.3998 98.92 55.4912 76.8286 55.4912C54.7372 55.4912 36.8286 73.3998 36.8286 95.4912C36.8286 117.583 54.7372 135.491 76.8286 135.491Z" stroke="#E55C2C" stroke-miterlimit="10"/>
<path opacity="0.25" d="M83.168 104.509C105.259 104.509 123.168 86.6002 123.168 64.5088C123.168 42.4174 105.259 24.5088 83.168 24.5088C61.0766 24.5088 43.168 42.4174 43.168 64.5088C43.168 86.6002 61.0766 104.509 83.168 104.509Z" stroke="#E55C2C" stroke-miterlimit="10"/>
<path opacity="0.25" d="M83.1676 99.5111C102.498 99.5111 118.169 83.8403 118.169 64.5094C118.169 45.1786 102.498 29.5078 83.1676 29.5078C63.8368 29.5078 48.166 45.1786 48.166 64.5094C48.166 83.8403 63.8368 99.5111 83.1676 99.5111Z" stroke="#E55C2C" stroke-miterlimit="10"/>
</g>
<path d="M96.1692 32.0095L78.8476 62.0095L61.526 92.0096C54.9487 86.7888 50.4663 79.3784 48.8959 71.129C47.3254 62.8797 48.7715 54.3407 52.9704 47.0684C57.1693 39.7961 63.8416 34.2746 71.7711 31.5105C79.7006 28.7463 88.3593 28.9234 96.1692 32.0095ZM103.177 29.8687C84.1756 18.8959 59.5068 25.5071 48.5372 44.5087C37.5676 63.5103 44.1756 88.1792 63.1772 99.152L83.1772 64.5087L103.177 29.8687Z" fill="#E55C2C"/>
<path d="M96.8384 60.8486L76.8384 95.4887L56.8384 130.129C62.8695 133.612 69.7133 135.443 76.6784 135.434C90.5472 135.434 104.109 128.26 111.482 115.489C122.454 96.4839 115.846 71.8182 96.8416 60.8486H96.8384Z" fill="#E55C2C"/>
</g>
</svg>
