<svg width="79" height="16" viewBox="0 0 79 16" fill="none" xmlns="http://www.w3.org/2000/svg">
<g clip-path="url(#clip0)">
<path d="M23.62 2.09236C25.6611 2.09236 27.692 2.09236 29.7293 2.09236C29.9844 2.09236 30.0839 2.01455 30.075 1.75431C30.0597 1.32568 30.075 0.897047 30.075 0.468416C30.075 0.0193746 30.075 0.0180991 29.6349 0.0180991C26.7774 0.0180991 23.9198 0.0270289 21.061 0.0180991C18.877 0.00916929 17.3169 1.83085 17.3743 3.70228C17.4151 5.05833 17.3819 6.41694 17.3819 7.77427V11.9534C17.3819 11.9802 17.3819 12.007 17.3819 12.0338C17.4176 13.8925 18.951 15.5037 20.8071 15.5266C23.7974 15.5623 26.7901 15.5356 29.7816 15.5407C30.0074 15.5407 30.0788 15.4475 30.075 15.2345C30.0674 14.7791 30.075 14.3237 30.075 13.8682C30.075 13.4753 30.0686 13.4702 29.6642 13.4689C27.6091 13.4689 25.5553 13.4689 23.5014 13.4689C22.9673 13.4691 22.4544 13.2598 22.0728 12.8861C21.6912 12.5124 21.4713 12.0039 21.4603 11.4699C21.4424 10.6305 21.4603 9.79114 21.4526 8.95173C21.4526 8.71828 21.547 8.63408 21.7728 8.63791C22.2997 8.64429 27.5874 8.63791 29.7038 8.63791C30.0482 8.63791 30.0699 8.61622 30.0712 8.27434C30.0712 7.8725 30.0712 7.47066 30.0712 7.06882C30.0712 6.59681 30.0712 6.59681 29.5928 6.59681H23.7514C23.1838 6.59681 22.6594 6.47945 22.2015 6.10823C21.4118 5.47038 21.2894 4.31461 21.5942 3.42928C21.8826 2.58733 22.6505 2.09236 23.62 2.09236Z" fill="#C0C0C0"/>
<path d="M36.0514 3.80911C36.1291 3.32809 36.3762 2.89072 36.7482 2.57604C37.1203 2.26136 37.5926 2.09014 38.0798 2.09332C40.1336 2.09332 42.1862 2.09332 44.2401 2.09332C44.5794 2.09332 44.6062 2.06653 44.6075 1.7272C44.6075 1.3075 44.6075 0.887795 44.6075 0.468094C44.6075 0.0241554 44.6075 0.0228771 44.1572 0.0228771C41.3098 0.0228771 38.4608 0.0228771 35.6101 0.0228771C35.1235 0.0155239 34.6404 0.105684 34.1892 0.288035C33.7381 0.470386 33.328 0.741238 32.9832 1.08462C32.6384 1.42799 32.3658 1.83694 32.1816 2.28734C31.9974 2.73774 31.9052 3.22047 31.9106 3.70706C31.9038 6.42002 31.9038 9.13383 31.9106 11.8485C31.9106 13.9419 33.5243 15.5378 35.6228 15.5391H44.2465C44.5692 15.5391 44.596 15.511 44.5973 15.1844C44.5973 14.7473 44.5973 14.3097 44.5973 13.8717C44.5973 13.489 44.5807 13.4712 44.1827 13.4699H38.1691C36.9036 13.4699 36.0259 12.596 36.0247 11.3344C36.0247 8.95906 36.0247 6.58416 36.0247 4.20968C36.022 4.07564 36.031 3.94161 36.0514 3.80911Z" fill="#C0C0C0"/>
<path d="M15.5024 0.44021C15.5024 0.0217846 15.5024 0.0205078 15.0852 0.0205078H0.942947C0.588306 0.0205078 0.574274 0.0345388 0.572998 0.377699C0.572998 0.824189 0.572998 1.27068 0.572998 1.7159C0.572998 2.07692 0.585755 2.08967 0.955704 2.08967H5.42826C5.98574 2.08967 5.98574 2.08967 5.98574 2.64077V15.1221C5.98574 15.5354 5.98574 15.5367 6.40671 15.5367H9.64696C10.0883 15.5367 10.0896 15.5367 10.0896 15.0902C10.0896 11.4647 10.0896 7.84004 10.0896 4.21624C10.0896 2.96989 10.9711 2.0935 12.2175 2.09095C13.2087 2.09095 14.1986 2.09095 15.1898 2.09095C15.422 2.09095 15.5087 2.00675 15.5036 1.77585C15.4947 1.33319 15.5024 0.893079 15.5024 0.44021Z" fill="#C0C0C0"/>
<path d="M61.4096 3.65847C61.3956 1.57527 59.7755 0.0214844 57.6974 0.0214844H46.928C46.4879 0.0214844 46.4866 0.0214842 46.4866 0.471802V9.28552C46.4866 11.2501 46.4866 13.2142 46.4866 15.1779C46.4866 15.3859 46.4994 15.544 46.7775 15.5415C47.9562 15.5338 49.135 15.5415 50.3137 15.5415C50.5255 15.5415 50.5982 15.4522 50.5956 15.2506C50.5956 14.7595 50.5956 14.2684 50.5956 13.7772V2.50014C50.5956 2.12382 50.616 2.09448 50.9209 2.09448C52.3943 2.09448 53.8678 2.0881 55.3412 2.09448C55.8119 2.09861 56.2641 2.27831 56.6092 2.59837C57.1195 3.04741 57.321 3.61892 57.3185 4.29248C57.3108 7.90778 57.3108 11.5222 57.3185 15.1358C57.3185 15.5185 57.3274 15.5313 57.7012 15.5313C58.8353 15.5313 59.9694 15.5313 61.1022 15.5313C61.3305 15.5313 61.4211 15.456 61.4198 15.2213C61.416 11.3738 61.4351 7.51614 61.4096 3.65847Z" fill="#C0C0C0"/>
<path d="M78.1913 3.65345C78.1903 2.69031 77.8071 1.76692 77.126 1.08599C76.4448 0.405068 75.5213 0.0222497 74.5581 0.0215744C72.0127 0.0215744 69.4686 0.0215744 66.9257 0.0215744C66.4484 0.0182135 65.9751 0.109007 65.5329 0.288761C65.0907 0.468515 64.6883 0.733697 64.3487 1.06914C64.0091 1.40458 63.739 1.80369 63.5539 2.24364C63.3687 2.68358 63.2721 3.15572 63.2696 3.63304C63.2492 6.39958 63.2492 9.16654 63.2696 11.9339C63.2727 12.4116 63.3702 12.884 63.5565 13.3239C63.7427 13.7638 64.014 14.1625 64.3548 14.4973C64.6956 14.832 65.0992 15.0962 65.5423 15.2745C65.9855 15.4528 66.4595 15.5419 66.9372 15.5365C69.463 15.5365 71.9893 15.5365 74.516 15.5365C76.5992 15.5365 78.1926 13.9342 78.1977 11.8472C78.1977 10.4899 78.1977 9.13253 78.1977 7.77647C78.1926 6.40256 78.1977 5.02737 78.1913 3.65345ZM74.09 11.3535C74.09 12.6024 73.2136 13.4711 71.9608 13.475C71.1308 13.475 70.3003 13.475 69.4694 13.475C68.2601 13.475 67.3735 12.582 67.3722 11.3726C67.3722 8.97945 67.3722 6.58668 67.3722 4.19434C67.3722 2.98627 68.2652 2.10222 69.4745 2.09839C70.3139 2.09839 71.1533 2.09839 71.9927 2.09839C73.2072 2.09839 74.0836 2.98244 74.0887 4.20072C74.0887 5.39732 74.0887 6.59391 74.0887 7.7905C74.0887 8.9871 74.0938 10.1595 74.09 11.3535Z" fill="#C0C0C0"/>
</g>
<defs>
<clipPath id="clip0">
<rect width="77.8169" height="15.5634" fill="white" transform="translate(0.473877)"/>
</clipPath>
</defs>
</svg>
