<svg width="33" height="33" viewBox="0 0 33 33" fill="none" xmlns="http://www.w3.org/2000/svg">
<path d="M16 33C12.8355 33 9.74207 32.0616 7.11088 30.3035C4.4797 28.5454 2.42894 26.0466 1.21793 23.1229C0.00693253 20.1993 -0.309921 16.9823 0.307443 13.8786C0.924806 10.7749 2.44866 7.92394 4.6863 5.6863C6.92394 3.44866 9.77487 1.92481 12.8786 1.30744C15.9823 0.690079 19.1993 1.00693 22.1229 2.21793C25.0466 3.42894 27.5454 5.4797 29.3035 8.11088C31.0616 10.7421 32 13.8355 32 17C32 21.2435 30.3143 25.3131 27.3137 28.3137C24.3131 31.3143 20.2435 33 16 33ZM16 3.28572C13.2876 3.28572 10.6361 4.09005 8.38076 5.59699C6.12545 7.10394 4.36766 9.24582 3.32966 11.7518C2.29166 14.2577 2.02007 17.0152 2.54924 19.6755C3.07841 22.3358 4.38456 24.7795 6.30254 26.6975C8.22052 28.6154 10.6642 29.9216 13.3245 30.4508C15.9848 30.9799 18.7423 30.7084 21.2482 29.6703C23.7542 28.6323 25.8961 26.8746 27.403 24.6193C28.91 22.364 29.7143 19.7124 29.7143 17C29.7143 13.3628 28.2694 9.87447 25.6975 7.30254C23.1255 4.73061 19.6373 3.28572 16 3.28572Z" fill="#F1C191" stroke="#F1C191" stroke-width="0.5"/>
<path d="M21.246 24.8572L14.8574 18.4686V7.71436H17.1431V17.5201L22.8574 23.2458L21.246 24.8572Z" fill="#E55D2D"/>
</svg>
