<svg width="33" height="34" viewBox="0 0 33 34" fill="none" xmlns="http://www.w3.org/2000/svg">
<path d="M20.625 33.5H12.375C11.6459 33.4993 10.9468 33.2093 10.4313 32.6937C9.91569 32.1782 9.62573 31.4791 9.625 30.75V23.875H2.75C2.02088 23.8743 1.32183 23.5843 0.806261 23.0687C0.290693 22.5532 0.00072803 21.8541 0 21.125V12.875C0.00072803 12.1459 0.290693 11.4468 0.806261 10.9313C1.32183 10.4157 2.02088 10.1257 2.75 10.125H9.625V3.25C9.62573 2.52088 9.91569 1.82183 10.4313 1.30626C10.9468 0.790693 11.6459 0.500728 12.375 0.5H20.625C21.3541 0.500728 22.0532 0.790693 22.5687 1.30626C23.0843 1.82183 23.3743 2.52088 23.375 3.25V10.125H30.25C30.9791 10.1257 31.6782 10.4157 32.1937 10.9313C32.7093 11.4468 32.9993 12.1459 33 12.875V21.125C32.9989 21.854 32.7088 22.5529 32.1933 23.0683C31.6779 23.5838 30.979 23.8739 30.25 23.875H23.375V30.75C23.3739 31.479 23.0838 32.1779 22.5683 32.6933C22.0529 33.2088 21.354 33.4989 20.625 33.5ZM2.75 12.875V21.125H12.375V30.75H20.625V21.125H30.25V12.875H20.625V3.25H12.375V12.875H2.75Z" fill="#DA75AF"/>
</svg>
